<svg id="undraw_art_museum_-8-or4" xmlns="http://www.w3.org/2000/svg" width="1435.661" height="876.471" viewBox="0 0 1435.661 876.471">
  <path id="Path_264" data-name="Path 264" d="M239.195,708.966c11.756,43.457,52.022,70.37,52.022,70.37s21.207-43.543,9.451-87-52.022-70.37-52.022-70.37S227.439,665.511,239.195,708.966Z" transform="translate(-17.901 52.298)" fill="#3f3d56"/>
  <path id="Path_265" data-name="Path 265" d="M272.7,687.789c32.258,31.4,36.2,79.674,36.2,79.674s-48.361-2.641-80.619-34.043-36.2-79.674-36.2-79.674S240.44,656.387,272.7,687.789Z" transform="translate(-34.13 64.136)" fill="#4fffa1"/>
  <rect id="Rectangle_252" data-name="Rectangle 252" width="1135.907" height="3.506" transform="translate(155.746 872.966)" fill="#2f2e41"/>
  <path id="Path_266" data-name="Path 266" d="M300.1,780.385H254.526V734.808H300.1Zm-42.071-3.506H296.6V738.315H258.033Z" transform="translate(-10.867 94.334)" fill="#3f3d56"/>
  <rect id="Rectangle_253" data-name="Rectangle 253" width="386.256" height="386.256" transform="translate(0 34.755)" fill="#027d3b"/>
  <path id="Path_267" data-name="Path 267" d="M389.031,252.129v8.865a40.085,40.085,0,0,1-13.775-15.613c-5.142-10.517-4.979-22.64-4.817-34.367.186-13.938.372-27.084-8.47-35.647-9.726-9.4-25.293-8.074-40.347-6.794-1.768.14-3.537.3-5.282.442-15.1,1.14-31.924-2.676-40.091-12.984H286.44c7.469,5.026,18.894,6.794,29.388,6,1.7-.116,3.444-.279,5.189-.419,15.846-1.349,33.809-2.885,45.792,8.726,11.029,10.657,10.82,25.968,10.61,40.766-.163,10.913-.3,22.175,4.119,31.2A31.911,31.911,0,0,0,389.031,252.129Z" transform="translate(-2.775 -121.275)" fill="#027d3b"/>
  <path id="Path_268" data-name="Path 268" d="M416.271,313.441v10.378a44.128,44.128,0,0,0-5.677-6.12c-12.007-10.587-29.248-12.914-45.909-15.194-2.164-.279-4.281-.582-6.4-.884-27.015-3.886-43.768-13.17-51.19-28.318-5.142-10.517-4.98-22.64-4.817-34.367.186-13.938.372-27.084-8.47-35.647-9.726-9.4-25.293-8.074-40.347-6.794-1.768.14-3.537.3-5.282.442-19.406,1.466-41.674-5.259-44.722-23.431-1.047-6.236.512-11.96,2.816-17.475h7.632c-2.56,5.538-4.468,10.89-3.56,16.311,2.3,13.868,20.965,18.847,37.322,17.614,1.7-.116,3.444-.279,5.189-.419,15.846-1.349,33.809-2.885,45.792,8.726,11.029,10.657,10.82,25.968,10.61,40.766-.163,10.913-.3,22.175,4.119,31.2,6.329,12.937,21.337,20.942,45.908,24.478,2.094.3,4.212.605,6.329.884,17.684,2.4,36,4.886,49.608,16.87Q415.747,312.918,416.271,313.441Z" transform="translate(-30.015 -121.275)" fill="#02e06b"/>
  <path id="Path_269" data-name="Path 269" d="M446.614,488.373v14.333c-8.4-8.935-15.427-21.2-20.8-36.531-1.14-3.257-2.234-6.585-3.327-9.912-6.027-18.219-12.263-37.043-27.108-49.073-15.869-12.844-38.6-15.683-60.591-18.429-2.816-.349-5.631-.7-8.423-1.07-35.647-4.724-57.729-15.962-67.525-34.344-6.794-12.774-6.585-27.48-6.376-41.7.256-16.893.512-32.855-11.169-43.233-12.821-11.4-33.367-9.8-53.215-8.237-2.35.186-4.677.372-6.957.535-25.619,1.768-55.007-6.376-59.009-28.411-1.978-10.8,3.071-20.36,7.935-29.621,2.792-5.305,5.445-10.354,6.794-15.543,2.839-10.68-.675-22.71-8.47-31.11h11.4a41,41,0,0,1,6.026,33.111c-1.605,6.073-4.584,11.751-7.469,17.242-4.444,8.423-8.609,16.381-7.143,24.525,3.071,16.8,27.666,22.85,49.236,21.36,2.257-.163,4.561-.349,6.864-.512,20.9-1.652,44.582-3.49,60.4,10.587,14.543,12.914,14.264,31.482,13.984,49.422-.186,13.24-.4,26.9,5.422,37.858,8.353,15.66,28.178,25.386,60.591,29.69,2.746.372,5.538.721,8.33,1.07,23.362,2.909,47.491,5.91,65.431,20.453,16.823,13.635,23.454,33.623,29.83,52.959,1.094,3.3,2.187,6.562,3.3,9.8A110.284,110.284,0,0,0,446.614,488.373Z" transform="translate(-60.358 -121.275)" fill="#03ff79"/>
  <path id="Path_270" data-name="Path 270" d="M77,296.93c10.61,12.844,33.111,17.591,53.285,16.195,2.28-.163,4.607-.349,6.957-.535,19.848-1.559,40.394-3.165,53.215,8.237,11.681,10.378,11.425,26.34,11.169,43.233-.209,14.217-.419,28.923,6.376,41.7,9.8,18.382,31.878,29.621,67.525,34.344,2.792.372,5.608.721,8.423,1.07,21.989,2.746,44.722,5.584,60.591,18.429,14.845,12.03,21.081,30.854,27.108,49.073,1.094,3.327,2.187,6.655,3.327,9.912,1.047,3,2.164,5.864,3.327,8.633h9.959c-1.745-3.793-3.234-7.585-4.514-11.215-1.117-3.234-2.211-6.492-3.3-9.8-6.375-19.336-13.007-39.324-29.83-52.959-17.94-14.543-42.069-17.544-65.431-20.453-2.792-.349-5.584-.7-8.33-1.07-32.413-4.3-52.238-14.031-60.591-29.69-5.817-10.959-5.608-24.618-5.421-37.858.279-17.94.558-36.508-13.984-49.422-15.822-14.078-39.51-12.239-60.4-10.587-2.3.163-4.607.349-6.864.512-21.57,1.489-46.165-4.561-49.236-21.36-1.466-8.144,2.7-16.1,7.143-24.525,2.885-5.491,5.864-11.169,7.469-17.242,4.374-16.614-3-35.019-17.963-45.071v11.4c8.167,8.423,11.89,20.732,9,31.668-1.35,5.189-4,10.238-6.794,15.543-.745,1.419-1.489,2.815-2.21,4.258Z" transform="translate(-77 -106.207)" fill="#4fffa1"/>
  <path id="Path_271" data-name="Path 271" d="M247.86,471.238H238.2c-.512-1.513-1-3.048-1.513-4.584-6.027-18.219-12.262-37.043-27.108-49.073-15.869-12.844-38.6-15.683-60.591-18.429-2.816-.349-5.631-.7-8.423-1.07C109.11,393.916,88.192,384.656,77,369.9V346.751a43.913,43.913,0,0,0,4.3,13.263c8.353,15.66,28.178,25.386,60.591,29.69,2.746.372,5.538.721,8.33,1.07,23.362,2.909,47.491,5.91,65.431,20.453,16.823,13.635,23.455,33.623,29.83,52.959C246.278,466.56,247.046,468.911,247.86,471.238Z" transform="translate(-77 -50.227)" fill="#8affc1"/>
  <path id="Path_291" data-name="Path 291" d="M0,0H386.256V386.256H0Z" transform="translate(523.539 34.755)" fill="#ffd991"/>
  <path id="Path_272" data-name="Path 272" d="M644.589,183.953A123.332,123.332,0,0,1,458.442,290.08V156.03H641.4A122.574,122.574,0,0,1,644.589,183.953Z" transform="translate(65.097 -121.275)" fill="#ffc454"/>
  <circle id="Ellipse_28" data-name="Ellipse 28" cx="74.459" cy="74.459" r="74.459" transform="translate(735.281 65.003)" fill="#f09d00"/>
  <path id="Path_290" data-name="Path 290" d="M53.517,0A53.517,53.517,0,1,1,0,53.517,53.517,53.517,0,0,1,53.517,0Z" transform="translate(588.691 244.171)" fill="#c2820c"/>
  <path id="Path_273" data-name="Path 273" d="M761.335,393.106V456.4H684.759a53.522,53.522,0,0,1,76.576-63.29Z" transform="translate(148.459 -35.386)" fill="#9c6a09"/>
  <circle id="Ellipse_30" data-name="Ellipse 30" cx="13.961" cy="13.961" r="13.961" transform="translate(763.204 281.399)" fill="#6c63ff"/>
  <path id="Path_292" data-name="Path 292" d="M0,0H386.256V386.256H0Z" transform="translate(1049.405 34.755)" fill="#6969ff"/>
  <path id="Path_274" data-name="Path 274" d="M1030.055,156.03V314.255H841.58v9.307h197.782V156.03Z" transform="translate(207.825 -121.275)" fill="#3232cf"/>
  <path id="Path_275" data-name="Path 275" d="M1152.217,482.656l15.99-22.733V443.75l-27.364,38.9ZM1087.3,316.1l-85.651,121.81,63.639,44.745h16.172l-66.85-47,74.948-106.593,78.651,55.309V372.991Z" transform="translate(267.454 -61.645)" fill="#282885"/>
  <path id="Path_276" data-name="Path 276" d="M973.646,304.86l-49.353,49.352,49.353,49.353L1023,354.213ZM937.44,354.212l36.206-36.206,36.206,36.206-36.206,36.206Z" transform="translate(238.638 -65.832)" fill="#3232cf"/>
  <circle id="Ellipse_31" data-name="Ellipse 31" cx="35.059" cy="35.059" r="35.059" transform="translate(154.259 0)" fill="#edf5ff"/>
  <circle id="Ellipse_32" data-name="Ellipse 32" cx="35.059" cy="35.059" r="35.059" transform="translate(695.919 0)" fill="#f2f2f2"/>
  <circle id="Ellipse_33" data-name="Ellipse 33" cx="35.059" cy="35.059" r="35.059" transform="translate(1213.037 0)" fill="#f2f2f2"/>
  <circle id="Ellipse_34" data-name="Ellipse 34" cx="33.306" cy="33.306" r="33.306" transform="translate(661.736 172.665)" fill="#ffb8b8"/>
  <path id="Path_277" data-name="Path 277" d="M570.625,294.679s8.765,45.576,5.259,54.341,49.082-3.506,49.082-3.506-10.518-45.576-8.765-56.094S570.625,294.679,570.625,294.679Z" transform="translate(106.888 -72.931)" fill="#ffb8b8"/>
  <path id="Path_278" data-name="Path 278" d="M451.479,276.507l3.505,47.329,17.4,74.33,5.389,20.328,8.765-31.553-8.765-71.871L474.8,282.714Z" transform="translate(168.187 103.006)" fill="#ffb8b8"/>
  <path id="Path_279" data-name="Path 279" d="M670.669,402.106v49.083s-5.259,63.106-15.776,78.882-14.024-63.106-14.024-63.106l8.242-57.847Z" transform="translate(133.055 -29.606)" fill="#ffb8b8"/>
  <path id="Path_280" data-name="Path 280" d="M550.127,514.826s-8.765,10.518-1.753,117.447-3.505,184.059,19.283,184.059c0,0-7.012,22.788,12.271,24.541s28.047,3.506,29.8-1.753,5.259-29.8,0-29.8c0,0,0,7.012,3.506-21.035s3.506-161.27,12.271-178.8l28.047,64.858s0,29.8,5.259,43.824,14.023,94.659,14.023,94.659L671.08,825.1s42.071,7.012,43.824,0,1.753-17.53,0-21.035-1.753-3.506,1.753-10.518,3.506-12.271,1.753-17.53-1.753-119.2-1.753-119.2-3.506-138.482-24.541-145.494S550.127,514.826,550.127,514.826Z" transform="translate(97.585 10.181)" fill="#473004"/>
  <path id="Path_281" data-name="Path 281" d="M574.237,740.556,560.214,765.1s-21.912-7.888-17.529,12.271c37.688,2.63,63.982-.876,63.982-.876s8.765,3.506,10.518-1.753-4.382-23.665-9.641-23.665S574.237,740.556,574.237,740.556Z" transform="translate(96.263 96.475)" fill="#1c1c59"/>
  <path id="Path_282" data-name="Path 282" d="M642.291,737.217s-14.023,31.553-8.765,33.306,52.588,8.765,56.094,10.518,21.035,3.506,22.788-7.012-8.765-14.024-8.765-14.024S684.362,756.5,679.1,738.97,642.291,737.217,642.291,737.217Z" transform="translate(129.88 92.802)" fill="#1c1c59"/>
  <path id="Path_283" data-name="Path 283" d="M643.222,326.533s-47.329-8.765-57.847,0-54.342,26.295-54.342,35.06,22.788,94.659,22.788,94.659-12.271,129.718,0,133.224,33.306-7.012,57.847,5.259,94.659-10.518,94.659-10.518-26.294-112.188-19.282-133.224,12.271-92.907,12.271-92.907S669.515,326.533,643.222,326.533Z" transform="translate(92.138 -59.21)" fill="#9c6a09"/>
  <path id="Path_284" data-name="Path 284" d="M548.26,347.188l-12.271,3.506s-26.294,82.388-15.776,85.894,40.318,10.518,43.824,10.518S548.26,347.188,548.26,347.188Z" transform="translate(87.183 -50.064)" fill="#9c6a09"/>
  <path id="Path_285" data-name="Path 285" d="M633.206,340.8l28.047,10.518s36.812,68.365,28.047,77.13-47.329,17.529-47.329,17.529Z" transform="translate(130.201 -52.443)" fill="#9c6a09"/>
  <path id="Path_286" data-name="Path 286" d="M592.96,250.885a18.824,18.824,0,0,0-8.331.368,21.723,21.723,0,0,0-5.921,3.884,69.3,69.3,0,0,1-10.124,6.707c-2.841,1.542-5.894,2.969-7.877,5.522a16.757,16.757,0,0,0-2.223,4.208,50.427,50.427,0,0,0-2.651,27.445A12.613,12.613,0,0,0,557,302.787c1.822,3.357,5.846,4.68,9.236,6.439,6.436,3.341,11.314,8.966,16.593,13.938a32.443,32.443,0,0,0,6.556,5.052c7.531,4.106,16.735,2.766,25.189,1.315a4.539,4.539,0,0,0,4.531-4.583l6.672-30.011a48.963,48.963,0,0,0,1.71-13.649c-.465-7.285-4.41-17.377-9.756-22.552C611.5,252.706,601.1,251.747,592.96,250.885Z" transform="translate(101.071 -86.052)" fill="#02e06b"/>
  <circle id="Ellipse_35" data-name="Ellipse 35" cx="13.833" cy="13.833" r="13.833" transform="translate(454.623 820.619)" fill="#4b4bff"/>
  <path id="Path_287" data-name="Path 287" d="M429.156,789.486a39.962,39.962,0,1,1,39.962-39.962A39.962,39.962,0,0,1,429.156,789.486Zm0-76.851a36.888,36.888,0,1,0,36.888,36.889,36.888,36.888,0,0,0-36.888-36.889Z" transform="translate(39.3 84.929)" fill="#2f2e41"/>
  <circle id="Ellipse_36" data-name="Ellipse 36" cx="13.833" cy="13.833" r="13.833" transform="translate(1127.753 822.372)" fill="#03ff79"/>
  <path id="Path_288" data-name="Path 288" d="M919.589,790.763A39.963,39.963,0,1,1,959.551,750.8,39.963,39.963,0,0,1,919.589,790.763Zm0-76.851A36.888,36.888,0,1,0,956.477,750.8a36.888,36.888,0,0,0-36.888-36.888Z" transform="translate(221.998 85.404)" fill="#2f2e41"/>
  <circle id="Ellipse_37" data-name="Ellipse 37" cx="13.833" cy="13.833" r="13.833" transform="translate(1127.753 745.243)" fill="#ffad0e"/>
  <path id="Path_289" data-name="Path 289" d="M919.589,734.568a39.962,39.962,0,1,1,39.962-39.962,39.963,39.963,0,0,1-39.962,39.962Zm0-76.851a36.888,36.888,0,1,0,36.888,36.888,36.888,36.888,0,0,0-36.888-36.888Z" transform="translate(221.998 64.47)" fill="#2f2e41"/>
</svg>
