<svg xmlns="http://www.w3.org/2000/svg" width="1701.343" height="728.747" viewBox="0 0 1701.343 728.747">
  <g id="undraw_code_thinking_re_gka2" transform="translate(0 0)">
    <path id="Path_397" data-name="Path 397" d="M346.7,481.841a16.272,16.272,0,1,0-32.387,2.139L267.566,545.2a22.667,22.667,0,0,0,3.064,24.889l3.667,4.278,16.827-3.365,19.071-16.827-2.244-19.071,23.558-37.02-.03-.027A16.259,16.259,0,0,0,346.7,481.841Z" transform="translate(26.729 -75.29)" fill="#ffb9b9"/>
    <path id="Path_398" data-name="Path 398" d="M33.1,451.529l-7.632-28.343,105.69-42.921L142.421,422.1Z" transform="translate(17.034 254.332)" fill="#ffb8b8"/>
    <path id="Path_399" data-name="Path 399" d="M114.863,700.653,90.258,609.265l1.156-.311a36.84,36.84,0,0,1,45.148,25.993v0l15.028,55.817Z" transform="translate(-90.258 19.833)" fill="#013318"/>
    <path id="Path_400" data-name="Path 400" d="M126.791,467.161,103.054,449.9l55.29-99.778L193.379,375.6Z" transform="translate(68.925 234.171)" fill="#ffb8b8"/>
    <path id="Path_401" data-name="Path 401" d="M231.813,697.12l-76.542-55.666.7-.968a36.839,36.839,0,0,1,51.458-8.128h0l46.749,34Z" transform="translate(-46.775 31.627)" fill="#013318"/>
    <path id="Path_402" data-name="Path 402" d="M413.424,595.039,353.688,537.01a30.166,30.166,0,0,0-39.5-2.206L201.4,660.1l10.1,15.705,107.694-72.918,72.918,95.355,69.553-34.776Z" transform="translate(-15.922 -33.137)" fill="#013318"/>
    <path id="Path_403" data-name="Path 403" d="M355.236,583.188l-43.751-3.365L279.8,572.142a16.275,16.275,0,1,0-3.087,21.12l0,.023,19.071,7.853,81.892,28.045,10.1-7.853Z" transform="translate(16.463 -8.947)" fill="#ffb9b9"/>
    <path id="Path_404" data-name="Path 404" d="M443.729,465.256l-24.68,15.705H389.881L254.142,430.479,55.58,466.377l-5.609-42.63L231.706,344.1,391,396.824Z" transform="translate(33.422 230.143)" fill="#013318"/>
    <circle id="Ellipse_55" data-name="Ellipse 55" cx="43.751" cy="43.751" r="43.751" transform="translate(380.675 335.293)" fill="#ffb9b9"/>
    <path id="Path_405" data-name="Path 405" d="M502.746,612.658a251.375,251.375,0,0,1-12.327,77.749l-3.277,10.079-15.706,71.8-16.827,4.487-12.34-15.705-24.68-17.949L399.64,713.948,384.249,688.3l-4.8-8.01L362.62,596.157l-63.944-35.9-21.315-3.366,4.487-12.34,19.071-25.8,19.07-2.244,5.609-4.487,4.487,2.244,24.736,9.529,80.2-33.884,11.734,1.918,40.386,33.655A251.158,251.158,0,0,1,502.746,612.658Z" transform="translate(34.882 -58.935)" fill="#02e06b"/>
    <path id="Path_406" data-name="Path 406" d="M364.73,347.529,322.1,375.574l-63.629,57.369-4.8-8.009-13.462-67.309h3.366l34.777-63.943Z" transform="translate(160.658 196.424)" opacity="0.1"/>
    <path id="Path_407" data-name="Path 407" d="M292.289,289.649l-34.777,63.943-20.193,22.437-17.948,4.487,48.237,52.725,68.43-61.7L378.667,343.5Z" transform="translate(146.721 193.725)" fill="#8affc1"/>
    <path id="Path_408" data-name="Path 408" d="M330.282,453.053l-4.74,1.824a6.617,6.617,0,0,1-1.77-9.19l.078-.112-8.76-.41a66.148,66.148,0,0,1,98.75-7.959c.4-1.374,4.747,1.3,6.522,4.009.6-2.235,4.673,8.57,6.115,16.207.667-2.543,3.234,1.562.985,5.5,1.425-.208,2.068,3.437.965,5.468,1.559-.732,1.3,3.619-.394,6.527,2.224-.2-.19,45.611-33.566,42.273-2.324-10.676-1.669-10.013-4.4-23.741-1.273-1.352-2.668-2.583-4.06-3.812l-7.531-6.647c-8.757-7.73-16.723-17.27-28.388-20.159-8.017-1.985-13.086-2.434-8.717-11.467-3.947,1.647-7.633,4.1-11.616,5.627C329.8,455.728,330.358,454.315,330.282,453.053Z" transform="translate(60.116 -106.538)" fill="#2f2e41"/>
    <circle id="Ellipse_56" data-name="Ellipse 56" cx="7.853" cy="7.853" r="7.853" transform="translate(438.448 376.24)" fill="#ffb9b9"/>
    <rect id="Rectangle_292" data-name="Rectangle 292" width="36.064" height="36.064" transform="translate(77.704 234.612) rotate(-86.19)" fill="#4b4bff"/>
    <path id="Path_409" data-name="Path 409" d="M125.51,362.131l43.695,2.91-2.91,43.695-43.695-2.91Zm41.668,4.683-39.895-2.657-2.657,39.9,39.895,2.657Z" transform="translate(-68.626 -144.396)" fill="#c7c7ff"/>
    <rect id="Rectangle_293" data-name="Rectangle 293" width="36.064" height="36.064" transform="matrix(0.978, -0.21, 0.21, 0.978, 248.196, 99.502)" fill="#f09d00"/>
    <path id="Path_410" data-name="Path 410" d="M262.437,276.51l9.2,42.814-42.814,9.2-9.2-42.814Zm6.938,41.353-8.4-39.091-39.091,8.4,8.4,39.091Z" transform="translate(-3.735 -201.662)" fill="#ffad0e"/>
    <rect id="Rectangle_294" data-name="Rectangle 294" width="36.064" height="36.064" transform="matrix(0.73, -0.684, 0.684, 0.73, 220.082, 285.905)" fill="#02e06b"/>
    <path id="Path_411" data-name="Path 411" d="M278.622,398.807l-31.961,29.935-29.937-31.961,31.961-29.937ZM246.75,426.052l29.182-27.333L248.6,369.537l-29.181,27.333Z" transform="translate(-5.674 -141.243)" fill="#03ff79"/>
    <path id="Path_412" data-name="Path 412" d="M1492.951,231.659H425.922a29.369,29.369,0,0,0-29.369,29.369V855.551a29.369,29.369,0,0,0,29.369,29.369H1492.951a29.369,29.369,0,0,0,29.369-29.369V261.029a29.369,29.369,0,0,0-29.369-29.369Z" transform="translate(114.601 -231.659)" fill="#3f3d56"/>
    <rect id="Rectangle_295" data-name="Rectangle 295" width="1047.007" height="590.62" transform="translate(550.529 51.903)" fill="#ebebff"/>
    <circle id="Ellipse_57" data-name="Ellipse 57" cx="10.739" cy="10.739" r="10.739" transform="translate(1062.399 14.318)" fill="#fff"/>
    <path id="Path_413" data-name="Path 413" d="M1077.471,621.722H329.89V31.1Z" transform="translate(220.639 20.802)" fill="#ffd991"/>
    <circle id="Ellipse_58" data-name="Ellipse 58" cx="100.642" cy="100.642" r="100.642" transform="translate(613.713 397.043)" fill="#4b4bff"/>
    <path id="Path_414" data-name="Path 414" d="M581.914,675.555A125.188,125.188,0,1,1,707.1,550.367,125.189,125.189,0,0,1,581.914,675.555Zm0-248.74A123.552,123.552,0,1,0,705.465,550.367,123.552,123.552,0,0,0,581.914,426.815Z" transform="translate(154.846 -102.228)" fill="#3f3d56"/>
    <rect id="Rectangle_296" data-name="Rectangle 296" width="97.802" height="20.436" transform="translate(1257.356 358.748)" fill="#3f3d56"/>
    <rect id="Rectangle_297" data-name="Rectangle 297" width="282.861" height="8.758" transform="translate(1164.827 248.033)" fill="#3f3d56"/>
    <rect id="Rectangle_298" data-name="Rectangle 298" width="282.861" height="8.758" transform="translate(1164.827 282.443)" fill="#3f3d56"/>
    <rect id="Rectangle_299" data-name="Rectangle 299" width="282.861" height="8.758" transform="translate(1164.827 316.854)" fill="#3f3d56"/>
    <rect id="Rectangle_300" data-name="Rectangle 300" width="40.873" height="40.872" transform="translate(1482.588 87.249)" fill="#4b4bff"/>
    <path id="Path_415" data-name="Path 415" d="M1034.411,339.695H984.78V290.064h49.631Zm-47.473-2.158h45.315V292.222H986.941Z" transform="translate(508.023 -192.597)" fill="#ccc"/>
    <path id="Path_416" data-name="Path 416" d="M1569.642,613.775H1467.461v-7.362a1.459,1.459,0,0,0-1.46-1.46h-35.034a1.459,1.459,0,0,0-1.46,1.459v7.362h-21.9v-7.362a1.459,1.459,0,0,0-1.46-1.46h-35.034a1.46,1.46,0,0,0-1.46,1.46h0v7.362h-21.9v-7.362a1.46,1.46,0,0,0-1.46-1.46h-35.034a1.46,1.46,0,0,0-1.46,1.46h0v7.362h-21.9v-7.362a1.46,1.46,0,0,0-1.46-1.46H1251.42a1.46,1.46,0,0,0-1.46,1.46v7.362h-21.9v-7.362a1.46,1.46,0,0,0-1.46-1.46h-35.033a1.459,1.459,0,0,0-1.46,1.46h0v7.362h-21.9v-7.362a1.46,1.46,0,0,0-1.46-1.46h-35.034a1.46,1.46,0,0,0-1.46,1.46h0v7.362h-21.9v-7.362a1.46,1.46,0,0,0-1.46-1.46H832.476a1.459,1.459,0,0,0-1.46,1.46h0v7.362h-21.9v-7.362a1.46,1.46,0,0,0-1.46-1.46H772.629a1.46,1.46,0,0,0-1.46,1.46h0v7.362h-21.9v-7.362a1.46,1.46,0,0,0-1.46-1.46H712.78a1.459,1.459,0,0,0-1.46,1.46h0v7.362h-21.9v-7.362a1.46,1.46,0,0,0-1.46-1.46H652.93a1.46,1.46,0,0,0-1.46,1.46h0v7.362h-21.9v-7.362a1.46,1.46,0,0,0-1.46-1.46H593.081a1.46,1.46,0,0,0-1.46,1.46h0v7.362h-21.9v-7.362a1.46,1.46,0,0,0-1.46-1.46H533.232a1.459,1.459,0,0,0-1.46,1.459v7.362h-21.9v-7.362a1.46,1.46,0,0,0-1.46-1.46H473.383a1.46,1.46,0,0,0-1.46,1.46h0v7.362H404.776a35.033,35.033,0,0,0-35.034,35.034V664.65a35.033,35.033,0,0,0,35.033,35.033H1569.641a35.034,35.034,0,0,0,35.034-35.034v-15.84a35.034,35.034,0,0,0-35.032-35.034Z" transform="translate(96.669 18.01)" fill="#3f3d56"/>
  </g>
</svg>
