<svg xmlns="http://www.w3.org/2000/svg" width="1778.858" height="1141.071" viewBox="0 0 1778.858 1141.071">
  <g id="undraw_web_devices_re_m8sc" transform="translate(-0.005 0)">
    <path id="Path_345" data-name="Path 345" d="M1237.947,1091.542h-449.5a61.752,61.752,0,0,1-61.682-61.682V320.819a61.753,61.753,0,0,1,61.684-61.683h449.5a61.753,61.753,0,0,1,61.684,61.683V1029.86a61.752,61.752,0,0,1-61.684,61.682Z" transform="translate(424.82 -83.332)" fill="#e6e6e6"/>
    <path id="Path_346" data-name="Path 346" d="M1223.955,276.933H766.149a19.334,19.334,0,0,0-19.31,19.31v718.287a19.34,19.34,0,0,0,19.31,19.31h457.806a19.333,19.333,0,0,0,19.309-19.31V296.241a19.334,19.334,0,0,0-19.31-19.308Z" transform="translate(446.266 -64.322)" fill="#fff"/>
    <path id="Path_347" data-name="Path 347" d="M761.9,261.572a4.725,4.725,0,0,1,4.719-4.719h32.088a4.719,4.719,0,0,1,0,9.438H766.618A4.725,4.725,0,0,1,761.9,261.572Z" transform="translate(462.352 -85.77)" fill="#e6e6e6"/>
    <path id="Path_348" data-name="Path 348" d="M787.454,261.572a4.724,4.724,0,0,1,4.719-4.719h32.09a4.719,4.719,0,0,1,0,9.438H792.174a4.725,4.725,0,0,1-4.72-4.719Z" transform="translate(489.648 -85.77)" fill="#e6e6e6"/>
    <path id="Path_349" data-name="Path 349" d="M940.785,261.572a4.725,4.725,0,0,1,4.719-4.719h32.088a4.719,4.719,0,1,1,0,9.438H945.5A4.725,4.725,0,0,1,940.785,261.572Z" transform="translate(653.424 -85.77)" fill="#e6e6e6"/>
    <path id="Path_350" data-name="Path 350" d="M1058.493,824.819c0,4.964-.094,9.91-.321,14.8H766.149a19.34,19.34,0,0,1-19.31-19.31V458.767c179.628,29.021,311.656,184.094,311.653,366.052Z" transform="translate(446.266 129.899)" fill="#ffe8bd"/>
    <rect id="Rectangle_269" data-name="Rectangle 269" width="126.856" height="29.145" rx="4.339" transform="translate(1376.96 397.196)" fill="#ffad0e"/>
    <rect id="Rectangle_270" data-name="Rectangle 270" width="265.293" height="29.145" rx="4.339" transform="translate(1307.742 455.486)" fill="#e6e6e6"/>
    <rect id="Rectangle_271" data-name="Rectangle 271" width="265.293" height="29.145" rx="4.339" transform="translate(1307.742 513.776)" fill="#e6e6e6"/>
    <path id="Path_351" data-name="Path 351" d="M991.211,747.861a6.924,6.924,0,0,1-5.018-12l.474-1.886q-.094-.227-.188-.453a18.594,18.594,0,0,0-34.3.127c-5.61,13.511-12.752,27.044-14.51,41.329a55.011,55.011,0,0,0,.966,18.918A220.535,220.535,0,0,1,918.576,702.3a212.875,212.875,0,0,1,1.32-23.746q1.094-9.7,3.035-19.253a223.089,223.089,0,0,1,44.24-94.55,59.371,59.371,0,0,0,24.691-25.618,45.279,45.279,0,0,0,4.119-12.376c-1.2.158-2.424.256-3.626.335l-1.143.059-.141.006a6.86,6.86,0,0,1-5.634-11.176L987,514.068c.788-.985,1.6-1.951,2.385-2.936a3.412,3.412,0,0,0,.256-.3c.907-1.123,1.813-2.227,2.719-3.35a19.838,19.838,0,0,0-6.5-6.286c-9.085-5.321-21.618-1.636-28.18,6.582-6.582,8.217-7.823,19.746-5.537,30.013a79.492,79.492,0,0,0,11,24.515c-.493.631-1.005,1.242-1.5,1.872A224.539,224.539,0,0,0,938.2,601.308a93.334,93.334,0,0,0-5.573-43.354c-5.334-12.867-15.331-23.7-24.135-34.828-10.575-13.361-32.26-7.53-34.123,9.407q-.027.246-.053.492,1.962,1.107,3.84,2.349a9.392,9.392,0,0,1-3.787,17.091l-.192.03a93.474,93.474,0,0,0,2.463,13.972,96.215,96.215,0,0,0,47.906,60.3c.769.394,1.517.788,2.286,1.163A229.182,229.182,0,0,0,914.5,685.985a217.357,217.357,0,0,0,.157,35.1l-.059-.414A57.438,57.438,0,0,0,894.986,687.5c-15.089-12.4-36.408-16.96-52.686-26.923a10.779,10.779,0,0,0-16.51,10.486q.033.218.067.435a63.078,63.078,0,0,1,7.075,3.409q1.961,1.107,3.84,2.349a9.392,9.392,0,0,1-3.787,17.091l-.192.029-.394.059a93.531,93.531,0,0,0,17.2,26.938,96.3,96.3,0,0,0,69.839,30.643h.02a229.133,229.133,0,0,0,15.391,44.93h54.98c.2-.611.375-1.242.552-1.852a62.463,62.463,0,0,1-15.213-.906c4.079-5.005,8.158-10.05,12.238-15.056a3.427,3.427,0,0,0,.256-.3c2.069-2.562,4.158-5.1,6.227-7.666v0a91.491,91.491,0,0,0-2.681-23.309Zm-62.96-123.853.029-.039-.029.078ZM916.073,733.792l-.473-1.064c.02-.769.02-1.537,0-2.325,0-.217-.039-.434-.039-.65.177,1.36.335,2.72.532,4.079Z" transform="translate(530.496 172.565)" fill="#ccc"/>
    <path id="Path_352" data-name="Path 352" d="M1181.041,311.118H769a3.41,3.41,0,1,1,0-6.821h412.039a3.41,3.41,0,1,1,0,6.821Z" transform="translate(466.296 -35.094)" fill="#cacaca"/>
    <ellipse id="Ellipse_47" data-name="Ellipse 47" cx="10.023" cy="10.246" rx="10.023" ry="10.246" transform="translate(1247.261 238.852)" fill="#3f3d56"/>
    <ellipse id="Ellipse_48" data-name="Ellipse 48" cx="10.023" cy="10.246" rx="10.023" ry="10.246" transform="translate(1281.883 238.852)" fill="#3f3d56"/>
    <ellipse id="Ellipse_49" data-name="Ellipse 49" cx="10.023" cy="10.246" rx="10.023" ry="10.246" transform="translate(1316.508 238.852)" fill="#3f3d56"/>
    <path id="Path_353" data-name="Path 353" d="M971.148,291.535H948.719a1.7,1.7,0,1,0,0,3.4h22.429a1.7,1.7,0,1,0,0-3.4Z" transform="translate(660.085 -48.725)" fill="#3f3d56"/>
    <path id="Path_354" data-name="Path 354" d="M971.148,294.618H948.719a1.7,1.7,0,1,0,0,3.4h22.429a1.7,1.7,0,1,0,0-3.4Z" transform="translate(660.085 -45.432)" fill="#3f3d56"/>
    <path id="Path_355" data-name="Path 355" d="M971.148,297.7H948.719a1.7,1.7,0,1,0,0,3.4h22.429a1.7,1.7,0,1,0,0-3.4Z" transform="translate(660.085 -42.145)" fill="#3f3d56"/>
    <path id="Path_356" data-name="Path 356" d="M765.385,458.9H526.5a12.746,12.746,0,0,0-12.727,12.76V849.031H778.143V471.657a12.753,12.753,0,0,0-12.758-12.76ZM646.743,673.318a28.341,28.341,0,0,1-28.209-28.209V601.581a28.209,28.209,0,0,1,56.418,0v43.527a28.34,28.34,0,0,1-28.209,28.208Z" transform="translate(197.319 130.038)" fill="#e6e6e6"/>
    <path id="Path_357" data-name="Path 357" d="M513.372,641.7v36.409a7.132,7.132,0,0,0,7.118,7.118h251.78a7.154,7.154,0,0,0,7.118-7.118V641.7Z" transform="translate(196.894 325.296)" fill="#ccc"/>
    <path id="Path_358" data-name="Path 358" d="M1371.2,174.129H350.04a33.149,33.149,0,0,0-33.1,33.1v689.08a33.128,33.128,0,0,0,33.1,33.1H1371.2a33.128,33.128,0,0,0,33.1-33.1V207.225a33.149,33.149,0,0,0-33.1-33.1Z" transform="translate(-12.915 -174.129)" fill="#e6e6e6"/>
    <path id="Path_359" data-name="Path 359" d="M1350.314,185.688H346.213a17.738,17.738,0,0,0-17.7,17.737v672a17.73,17.73,0,0,0,17.7,17.7h1004.1a17.73,17.73,0,0,0,17.7-17.7v-672a17.738,17.738,0,0,0-17.7-17.737Z" transform="translate(-0.557 -161.783)" fill="#fff"/>
    <path id="Path_360" data-name="Path 360" d="M1094.838,203.424v672a17.73,17.73,0,0,1-17.7,17.7H723.07a434.5,434.5,0,0,1-94.791-127.541q-2.319-4.637-4.416-9.384a430.64,430.64,0,0,1-38.27-147.3c-.258-3.128-.478-6.256-.625-9.42-.478-8.1-.7-16.3-.7-24.544a432.5,432.5,0,0,1,30.505-160.107c1.214-3.165,2.5-6.292,3.827-9.42A435.681,435.681,0,0,1,825.955,185.688h251.182a17.738,17.738,0,0,1,17.7,17.736Z" transform="translate(272.62 -161.783)" fill="#6969ff"/>
    <path id="Path_361" data-name="Path 361" d="M1285.351,234.317H345.817a3.737,3.737,0,1,1,0-7.473h939.534a3.737,3.737,0,1,1,0,7.473Z" transform="translate(13.933 -117.824)" fill="#cacaca"/>
    <ellipse id="Ellipse_50" data-name="Ellipse 50" cx="21.896" cy="22.384" rx="21.896" ry="22.384" transform="translate(401.807 45.174)" fill="#4b4bff"/>
    <ellipse id="Ellipse_51" data-name="Ellipse 51" cx="21.896" cy="22.384" rx="21.896" ry="22.384" transform="translate(477.451 45.174)" fill="#ffad0e"/>
    <ellipse id="Ellipse_52" data-name="Ellipse 52" cx="21.896" cy="22.384" rx="21.896" ry="22.384" transform="translate(553.093 45.174)" fill="#03ff79"/>
    <path id="Path_362" data-name="Path 362" d="M806.01,198.655H752.279a4.069,4.069,0,1,0,0,8.138H806.01a4.069,4.069,0,1,0,0-8.138Z" transform="translate(447.73 -147.933)" fill="#3f3d56"/>
    <path id="Path_363" data-name="Path 363" d="M806.01,206.039H752.279a4.069,4.069,0,1,0,0,8.138H806.01a4.069,4.069,0,1,0,0-8.138Z" transform="translate(447.73 -140.046)" fill="#3f3d56"/>
    <path id="Path_364" data-name="Path 364" d="M806.01,213.414H752.279a4.069,4.069,0,1,0,0,8.138H806.01a4.069,4.069,0,1,0,0-8.138Z" transform="translate(447.73 -132.169)" fill="#3f3d56"/>
    <rect id="Rectangle_272" data-name="Rectangle 272" width="149.333" height="31.933" rx="4.339" transform="translate(507.063 334.77)" fill="#9e9eff"/>
    <rect id="Rectangle_273" data-name="Rectangle 273" width="301.015" height="31.933" rx="4.339" transform="translate(431.223 398.635)" fill="#e6e6e6"/>
    <rect id="Rectangle_274" data-name="Rectangle 274" width="301.015" height="31.933" rx="4.339" transform="translate(431.223 462.501)" fill="#e6e6e6"/>
    <path id="Path_365" data-name="Path 365" d="M456.349,566.142a109.715,109.715,0,0,1-6.918,38.527H346.213a17.73,17.73,0,0,1-17.7-17.7V457.146a109.02,109.02,0,0,1,17.442-1.4,110.388,110.388,0,0,1,110.393,110.4Z" transform="translate(-0.557 126.675)" fill="#6c63ff"/>
    <path id="Path_366" data-name="Path 366" d="M1095.4,357.737v-9.42H937.5V239.138h-9.385V348.317H747.142V239.138h-9.383V348.317H618.24c-1.325,3.128-2.613,6.256-3.827,9.42H737.759V542.389H584.606c.147,3.165.368,6.293.625,9.42H737.758v147.3H623.5q2.1,4.747,4.416,9.383H737.758V832.317h9.383V708.495H928.113V832.317H937.5V708.495h157.9v-9.383H937.5a147.3,147.3,0,0,1,147.3-147.3h10.6v-9.42H937.5V357.737ZM928.113,699.109H747.142v-147.3H928.113Zm0-156.722H747.142v-3.68A180.971,180.971,0,0,1,928.113,357.736h0Z" transform="translate(272.981 -104.692)" opacity="0.2"/>
    <path id="Path_367" data-name="Path 367" d="M891.544,676.8a9.833,9.833,0,0,1-7.127-17.044l.674-2.679q-.133-.322-.268-.643c-9.053-21.587-39.735-21.438-48.71.181-7.967,19.188-18.11,38.409-20.608,58.7a78.126,78.126,0,0,0,1.371,26.867,313.205,313.205,0,0,1-28.491-130.084,302.32,302.32,0,0,1,1.875-33.725q1.553-13.77,4.31-27.344A316.832,316.832,0,0,1,857.4,416.741a84.317,84.317,0,0,0,35.068-36.383,64.327,64.327,0,0,0,5.849-17.576c-1.707.224-3.442.364-5.15.476l-1.623.084-.2.009a9.742,9.742,0,0,1-8-15.872q1.106-1.361,2.213-2.72c1.12-1.4,2.267-2.771,3.386-4.17a4.856,4.856,0,0,0,.364-.42c1.288-1.6,2.575-3.163,3.862-4.758a28.174,28.174,0,0,0-9.236-8.928c-12.9-7.557-30.7-2.323-40.022,9.348-9.348,11.67-11.111,28.043-7.864,42.624,2.771,12.482,8.816,23.929,15.617,34.816-.7.9-1.427,1.763-2.127,2.659a318.887,318.887,0,0,0-33.283,52.728,132.562,132.562,0,0,0-7.914-61.572c-7.575-18.274-21.774-33.665-34.277-49.463-15.019-18.976-45.816-10.694-48.462,13.361q-.038.349-.075.7,2.786,1.572,5.454,3.336a13.338,13.338,0,0,1-5.378,24.273l-.272.042a132.717,132.717,0,0,0,3.5,19.843,136.646,136.646,0,0,0,68.037,85.641c1.091.56,2.155,1.12,3.247,1.651a325.486,325.486,0,0,0-17.52,82.45,308.711,308.711,0,0,0,.224,49.845l-.084-.588a81.574,81.574,0,0,0-27.847-47.1c-21.43-17.6-51.707-24.087-74.826-38.237-11.129-6.812-25.39,1.991-23.448,14.893q.047.309.095.618a89.631,89.631,0,0,1,10.047,4.842q2.786,1.572,5.454,3.336a13.338,13.338,0,0,1-5.378,24.273l-.272.042c-.2.028-.364.056-.559.084a132.832,132.832,0,0,0,24.433,38.258,136.767,136.767,0,0,0,99.187,43.52h.028A325.38,325.38,0,0,0,811.5,746.515h78.084c.28-.868.532-1.763.784-2.631a88.718,88.718,0,0,1-21.606-1.287c5.793-7.109,11.587-14.274,17.38-21.382a4.859,4.859,0,0,0,.364-.42c2.939-3.638,5.905-7.249,8.844-10.887v0a129.947,129.947,0,0,0-3.808-33.1ZM802.127,500.9l.041-.055-.041.111Zm-17.3,155.917-.672-1.511c.028-1.092.028-2.183,0-3.3,0-.308-.056-.616-.056-.924.252,1.931.476,3.862.756,5.793Z" transform="translate(349.701 -15.171)" fill="#2f2e41"/>
    <path id="Path_368" data-name="Path 368" d="M611.481,491.31h0V386.368a60.738,60.738,0,0,0-60.739-60.739H328.4a60.738,60.738,0,0,0-60.739,60.739V962.1a60.738,60.738,0,0,0,60.738,60.738H550.742A60.738,60.738,0,0,0,611.481,962.1V566.011h0a3.831,3.831,0,0,0,3.831-3.831V495.143a3.831,3.831,0,0,0-3.83-3.832Z" transform="translate(-65.55 -12.309)" fill="#e6e6e6"/>
    <path id="Path_369" data-name="Path 369" d="M589.9,378.623v574.9a45.331,45.331,0,0,1-44.863,45.333,3.925,3.925,0,0,1-.491.021H321.125a45.358,45.358,0,0,1-45.354-45.35v-574.9a45.357,45.357,0,0,1,45.35-45.354h27.117a21.565,21.565,0,0,0,19.957,29.7H495.571a21.581,21.581,0,0,0,19.937-29.7h29.036a45.357,45.357,0,0,1,45.354,45.35Z" transform="translate(-56.893 -4.148)" fill="#fff"/>
    <path id="Path_370" data-name="Path 370" d="M545.6,793.107q0,8.934-.558,17.724a3.943,3.943,0,0,1-.5.021H321.125a45.358,45.358,0,0,1-45.354-45.35V509.3C426.955,516.921,545.617,641.732,545.6,793.107Z" transform="translate(-56.893 183.874)" fill="#deffed"/>
    <path id="Path_371" data-name="Path 371" d="M270.931,457.628a5.176,5.176,0,0,1-5.17-5.17V417.3a5.17,5.17,0,1,1,10.341,0v35.158A5.176,5.176,0,0,1,270.931,457.628Z" transform="translate(-67.585 80.084)" fill="#e6e6e6"/>
    <rect id="Rectangle_275" data-name="Rectangle 275" width="72.812" height="31.933" rx="4.339" transform="translate(339.535 509.64)" fill="#03ff79"/>
    <rect id="Rectangle_276" data-name="Rectangle 276" width="224.495" height="31.933" rx="4.339" transform="translate(263.695 573.506)" fill="#e6e6e6"/>
    <rect id="Rectangle_277" data-name="Rectangle 277" width="224.495" height="31.933" rx="4.339" transform="translate(263.695 637.371)" fill="#e6e6e6"/>
    <path id="Path_372" data-name="Path 372" d="M434.592,725.049a4.615,4.615,0,0,1-3.344-8l.316-1.257-.126-.3a12.392,12.392,0,0,0-22.858.085c-3.739,9-8.5,18.024-9.67,27.544a36.659,36.659,0,0,0,.644,12.608,146.977,146.977,0,0,1-13.37-61.044,141.865,141.865,0,0,1,.88-15.826q.729-6.462,2.023-12.832a148.68,148.68,0,0,1,29.485-63.014,39.569,39.569,0,0,0,16.456-17.073,30.182,30.182,0,0,0,2.745-8.248c-.8.105-1.615.171-2.417.223l-.762.039-.094,0a4.572,4.572,0,0,1-3.755-7.448l1.038-1.276c.525-.657,1.064-1.3,1.589-1.957a2.278,2.278,0,0,0,.171-.2c.6-.749,1.208-1.484,1.812-2.233a13.218,13.218,0,0,0-4.334-4.189c-6.055-3.546-14.407-1.09-18.781,4.386s-5.214,13.16-3.691,20a52.976,52.976,0,0,0,7.328,16.338c-.328.42-.67.828-1,1.248a149.623,149.623,0,0,0-15.619,24.744,62.205,62.205,0,0,0-3.714-28.894c-3.555-8.575-10.218-15.8-16.085-23.211a12.768,12.768,0,0,0-22.742,6.27q-.018.164-.035.328,1.307.738,2.559,1.566a6.259,6.259,0,0,1-2.524,11.391l-.128.02a62.281,62.281,0,0,0,1.642,9.312,64.124,64.124,0,0,0,31.927,40.188c.512.263,1.011.525,1.524.775a152.739,152.739,0,0,0-8.222,38.691,144.89,144.89,0,0,0,.105,23.391l-.04-.276a38.28,38.28,0,0,0-13.068-22.1c-10.056-8.261-24.264-11.3-35.113-17.943a7.184,7.184,0,0,0-11,6.989l.044.29a42.008,42.008,0,0,1,4.715,2.272q1.307.738,2.559,1.566a6.259,6.259,0,0,1-2.524,11.391l-.128.02-.263.04A62.335,62.335,0,0,0,340.216,707.4a64.18,64.18,0,0,0,46.545,20.423h.013a152.692,152.692,0,0,0,10.257,29.945h36.642c.131-.407.25-.828.368-1.235a41.632,41.632,0,0,1-10.139-.6c2.719-3.336,5.437-6.7,8.156-10.034a2.3,2.3,0,0,0,.171-.2c1.379-1.707,2.771-3.4,4.15-5.109v0a60.981,60.981,0,0,0-1.787-15.535Zm-41.96-82.543.019-.026-.019.052Zm-8.116,73.166-.315-.709c.013-.512.013-1.024,0-1.55,0-.145-.026-.289-.026-.433.118.906.223,1.813.354,2.719Z" transform="translate(-5.076 236.961)" fill="#ccc"/>
    <path id="Path_373" data-name="Path 373" d="M270.431,424.628a5.176,5.176,0,0,1-5.17-5.17V384.3a5.17,5.17,0,1,1,10.341,0v35.158a5.176,5.176,0,0,1-5.17,5.17Z" transform="translate(-68.119 44.836)" fill="#e6e6e6"/>
    <path id="Path_374" data-name="Path 374" d="M334.261,338.8a5.176,5.176,0,0,1,5.17-5.17h35.158a5.17,5.17,0,0,1,0,10.341H339.431A5.176,5.176,0,0,1,334.261,338.8Z" transform="translate(5.582 -3.764)" fill="#fff"/>
    <path id="Path_375" data-name="Path 375" d="M270.931,486.628a5.176,5.176,0,0,1-5.17-5.17V446.3a5.17,5.17,0,1,1,10.341,0v35.158a5.176,5.176,0,0,1-5.17,5.17Z" transform="translate(-67.585 111.06)" fill="#e6e6e6"/>
    <circle id="Ellipse_53" data-name="Ellipse 53" cx="5.17" cy="5.17" r="5.17" transform="translate(394.646 329.866)" fill="#fff"/>
    <path id="Path_376" data-name="Path 376" d="M1946.335,665.285,172.4,665.921a2.462,2.462,0,1,1,0-4.925l1773.933-.636a2.462,2.462,0,0,1,0,4.925Z" transform="translate(-169.934 345.226)" fill="#cacaca"/>
    <path id="Path_377" data-name="Path 377" d="M599.165,445.495l-9.331,2a53.722,53.722,0,0,0-1.451-11.585,34.787,34.787,0,0,1-5.254,13.016l-53.516,11.429-51.379-54.221c-.079-27.111,14.976-47.713,41.969-47.713,1.627,0,3.313.078,5.018.235a57.089,57.089,0,0,1,65.356,44.871C609.71,422.363,602.771,433.438,599.165,445.495Z" transform="translate(159.363 22.122)" fill="#2f2e41"/>
    <path id="Path_378" data-name="Path 378" d="M379.5,571.382h19.411l9.236-74.876-28.652,0Z" transform="translate(405.34 530.33)" fill="#ffb6b6"/>
    <path id="Path_379" data-name="Path 379" d="M549.1,703.156l30.686-1.832v13.147l29.174,20.149a8.212,8.212,0,0,1-4.666,14.97H567.761l-6.3-13-2.459,13H545.231Z" transform="translate(230.924 388.981)" fill="#1c1c59"/>
    <path id="Path_380" data-name="Path 380" d="M269.531,556.128l16.884,9.579L331.4,505.143,306.478,491Z" transform="translate(287.887 524.455)" fill="#ffb6b6"/>
    <path id="Path_381" data-name="Path 381" d="M453.3,691.448,480.892,705,474.4,716.433l15.431,31.922a8.212,8.212,0,0,1-11.446,10.717l-31.775-18.029.941-14.418L439,736.723l-11.98-6.8Z" transform="translate(104.658 378.431)" fill="#1c1c59"/>
    <path id="Path_382" data-name="Path 382" d="M606.622,406.679a17.192,17.192,0,0,0-13.857,22.427l-29.7,25.711,11.222,21.862,41.439-36.9a17.285,17.285,0,0,0-9.1-33.1Z" transform="translate(249.968 74.054)" fill="#ffb6b6"/>
    <path id="Path_383" data-name="Path 383" d="M637.936,481.652c-9.909,15.007-32.116,29.5-65.074,42.349a14.144,14.144,0,0,1-11.371-.372c-12.438-5.66-20.409-26.7-21.157-28.745l-24.089-32.5c-.427-.473-11.692-13.258-10.4-25.826a18.358,18.358,0,0,1,7.906-13.157c18.235-13.518,59.1,33.431,64.407,39.673l26.672-16.251,19.435-8.671,15.689-19.091,22.091,22.583-19.868,31.607a38.088,38.088,0,0,1-4.237,8.395Z" transform="translate(188.741 87.495)" fill="#5454cc"/>
    <path id="Path_384" data-name="Path 384" d="M544.068,477.169s57.077,90.916,46.736,101.257-26.432,13.056-26.432,13.056L528.76,545.336Z" transform="translate(213.331 149.555)" fill="#5454cc"/>
    <path id="Path_385" data-name="Path 385" d="M511.761,417.129l26.9,18.2a69.39,69.39,0,0,1,27.034,79.16l-7.573,23.019Z" transform="translate(195.173 85.425)" fill="#5454cc"/>
    <path id="Path_386" data-name="Path 386" d="M358.687,417.86l-3.6,12.527L342.819,581.444,281.507,695.708l29.262,20.9,83.608-108.69L427.446,500l51.933,238.908,39.017-2.788L491.3,404.876l-51.42-93.237Z" transform="translate(300.679 332.869)" fill="#282885"/>
    <path id="Path_387" data-name="Path 387" d="M519.481,419.342l37.441,30.6a50.989,50.989,0,0,1,16.926,26.065h0a50.986,50.986,0,0,1,1.79,14.272l-1.116,66.443,34.328,91.743s-93.066,35.158-105.474,4.136S519.481,419.342,519.481,419.342Z" transform="translate(182.876 87.788)" fill="#4fffa1"/>
    <path id="Path_388" data-name="Path 388" d="M545.585,684.761c-46.492,0-57.822.35-58.556.2l-.735-.149V656.849L497.6,606.613c-1.321-15.6-4.417-36.162-4.136-53.771,1.013-63.647-2.115-125.819-2.115-125.819l24.607-22.713,11.179,7.275,20.736,20.735c24.1,59.317,43.229,115.16,43.349,118.748l1.515,61.75-6.2,24.818C558.461,657.449,584.106,684.761,545.585,684.761Z" transform="translate(167.971 71.732)" fill="#5454cc"/>
    <path id="Path_389" data-name="Path 389" d="M326.765,267.973l-5.652,35.278,38.262,15.782Z" transform="translate(342.983 286.229)" opacity="0.2"/>
    <circle id="Ellipse_54" data-name="Ellipse 54" cx="37.461" cy="37.461" r="37.461" transform="translate(670.833 394.502)" fill="#ffb6b6"/>
    <path id="Path_390" data-name="Path 390" d="M482.067,474.9h0a68.811,68.811,0,0,0,82.6,16.7l8.153-4.035Z" transform="translate(163.457 147.134)" opacity="0.2"/>
    <path id="Path_391" data-name="Path 391" d="M584.47,475.806a17.192,17.192,0,0,0-26.349.8L520.3,465.983,508.237,487.4l53.625,14.245a17.285,17.285,0,0,0,22.607-25.834Z" transform="translate(191.41 137.607)" fill="#ffb6b6"/>
    <path id="Path_392" data-name="Path 392" d="M541.423,553.029c-17.983,0-42.315-10.542-71.2-30.964a14.143,14.143,0,0,1-5.956-9.693c-2.131-13.5,11.036-31.746,12.327-33.5l13.841-38.008c.159-.618,4.62-17.063,15.818-22.914a18.358,18.358,0,0,1,15.336-.654c21.329,7.767,4.674,67.743,2.388,75.608l28.259,13.3,17.946,11.439,24.576,2.571-6.673,30.88-37.323.84A38.1,38.1,0,0,1,541.423,553.029Z" transform="translate(144.196 84.145)" fill="#5454cc"/>
    <path id="Path_393" data-name="Path 393" d="M599.984,388.11c-3,3.9-13.33,7.351-25.6,10.135.02-.255.02-.51.02-.764a53.729,53.729,0,0,0-1.451-11.585,34.791,34.791,0,0,1-5.254,13.016c-.2.294-.392.588-.608.882-10.527,2.078-21.661,3.685-30.384,4.763,6,21.6,28.993,39.323,26.5,52.457l-67.375,13.761a52.815,52.815,0,0,0-1.294-16.27,35.022,35.022,0,0,1-9.762,18.525l-5.724,1.176-1.705-8.41c-14.78-35.5,5.822-71.844,39.578-90.643a41.032,41.032,0,0,1,25.993-17.446l8.41-1.725A41.227,41.227,0,0,1,599.984,388.11Z" transform="translate(153.231 19.209)" fill="#2f2e41"/>
    <path id="Path_394" data-name="Path 394" d="M631.1,715.448l1-22.4a72.35,72.35,0,0,1,33.746-8.542c-16.208,13.251-14.182,38.795-25.171,56.614a43.519,43.519,0,0,1-31.913,20.11l-13.563,8.3a72.923,72.923,0,0,1,15.37-59.093,70.436,70.436,0,0,1,12.945-12.029C626.757,706.977,631.1,715.448,631.1,715.448Z" transform="translate(283.064 371.014)" fill="#f2f2f2"/>
    <path id="Path_395" data-name="Path 395" d="M873.073,728.415H400.751a2.463,2.463,0,1,1,0-4.925H873.073a2.462,2.462,0,1,1,0,4.925Z" transform="translate(73.971 412.656)" fill="#cacaca"/>
  </g>
</svg>
