<svg xmlns="http://www.w3.org/2000/svg" width="608.655" height="264.038" viewBox="0 0 608.655 264.038">
  <g id="undraw_hello_re_3evm_1_" data-name="undraw_hello_re_3evm (1)" transform="translate(0 0)">
    <path id="Path_1" data-name="Path 1" d="M772.761,412.839H415.66a5.717,5.717,0,1,0,0,11.434h10.115V561.045a5.717,5.717,0,1,0,11.434,0l.087-136.771h286.61l26.426,136.771a5.717,5.717,0,0,0,11.434,0l1.663-136.771h9.331a5.717,5.717,0,1,0,0-11.434Z" transform="translate(-223.736 -303.916)" fill="#ce8900"/>
    <path id="Path_2" data-name="Path 2" d="M474.164,371.846v24.211H413.508a12.113,12.113,0,1,1-.842-24.211q.421-.015.842,0Z" transform="translate(-220.342 -288.397)" fill="#f2f2f2"/>
    <path id="Path_3" data-name="Path 3" d="M474.86,395.535a.932.932,0,0,1-.931.931h-62.3a12.757,12.757,0,0,1,0-25.514h62.3a.931.931,0,1,1,0,1.862h-62.3a10.895,10.895,0,1,0,0,21.789h62.3a.931.931,0,0,1,.931.931Z" transform="translate(-219.548 -288.062)" fill="#4b4bff"/>
    <path id="Path_4" data-name="Path 4" d="M478.927,380.613H413.745a.186.186,0,0,1,0-.372h65.185a.186.186,0,1,1,0,.372Z" transform="translate(-225.104 -291.578)" fill="#ccc"/>
    <path id="Path_5" data-name="Path 5" d="M478.927,387.805H413.745a.186.186,0,0,1,0-.372h65.185a.186.186,0,1,1,0,.372Z" transform="translate(-225.104 -294.3)" fill="#ccc"/>
    <path id="Path_6" data-name="Path 6" d="M478.927,395H413.745a.186.186,0,0,1,0-.372h65.185a.186.186,0,1,1,0,.372Z" transform="translate(-225.104 -297.022)" fill="#ccc"/>
    <path id="Path_7" data-name="Path 7" d="M478.927,402.188H413.745a.186.186,0,0,1,0-.372h65.185a.186.186,0,1,1,0,.372Z" transform="translate(-225.104 -299.744)" fill="#ccc"/>
    <path id="Path_8" data-name="Path 8" d="M455.766,330.8v24.211H395.11a12.113,12.113,0,0,1-.842-24.21q.421-.015.842,0Z" transform="translate(-213.378 -272.864)" fill="#f2f2f2"/>
    <path id="Path_9" data-name="Path 9" d="M456.463,354.493a.932.932,0,0,1-.931.931h-62.3a12.757,12.757,0,0,1,0-25.514h62.3a.931.931,0,1,1,0,1.862h-62.3a10.895,10.895,0,0,0,0,21.789h62.3a.932.932,0,0,1,.932.931Z" transform="translate(-212.584 -272.528)" fill="#0cb85c"/>
    <path id="Path_10" data-name="Path 10" d="M460.529,339.572H395.346a.186.186,0,0,1,0-.372h65.185a.186.186,0,0,1,0,.372Z" transform="translate(-218.141 -276.044)" fill="#ccc"/>
    <path id="Path_11" data-name="Path 11" d="M460.529,346.764H395.346a.186.186,0,0,1,0-.372h65.185a.186.186,0,1,1,0,.372Z" transform="translate(-218.141 -278.766)" fill="#ccc"/>
    <path id="Path_12" data-name="Path 12" d="M460.529,353.955H395.346a.186.186,0,0,1,0-.372h65.185a.186.186,0,1,1,0,.372Z" transform="translate(-218.141 -281.488)" fill="#ccc"/>
    <path id="Path_13" data-name="Path 13" d="M460.529,361.147H395.346a.186.186,0,0,1,0-.372h65.185a.186.186,0,0,1,0,.372Z" transform="translate(-218.141 -284.21)" fill="#ccc"/>
    <path id="Path_14" data-name="Path 14" d="M560.844,535.685V514.575a3.518,3.518,0,0,0-3.518-3.518H477.285a3.518,3.518,0,0,0-3.518,3.518v21.109Z" transform="translate(-247.894 -341.091)" fill="#03ff79"/>
    <rect id="Rectangle_1" data-name="Rectangle 1" width="87.076" height="27.266" transform="translate(225.874 202.51)" fill="#ffad0e"/>
    <path id="Path_15" data-name="Path 15" d="M473.768,620.029v21.109a3.518,3.518,0,0,0,3.518,3.518h80.04a3.518,3.518,0,0,0,3.518-3.518v-21.11Z" transform="translate(-247.894 -382.337)" fill="#4b4bff"/>
    <circle id="Ellipse_1" data-name="Ellipse 1" cx="2.639" cy="2.639" r="2.639" transform="translate(266.333 180.521)" fill="#fff"/>
    <circle id="Ellipse_2" data-name="Ellipse 2" cx="2.639" cy="2.639" r="2.639" transform="translate(266.333 215.704)" fill="#fff"/>
    <circle id="Ellipse_3" data-name="Ellipse 3" cx="2.639" cy="2.639" r="2.639" transform="translate(266.475 250.14)" fill="#fff"/>
    <path id="Path_16" data-name="Path 16" d="M553.416,472.327v24.211H492.76a12.113,12.113,0,1,1-.843-24.211q.421-.015.843,0Z" transform="translate(-250.338 -326.429)" fill="#f2f2f2"/>
    <path id="Path_17" data-name="Path 17" d="M554.107,496.015a.931.931,0,0,1-.931.931h-62.3a12.757,12.757,0,0,1-.015-25.514h62.311a.931.931,0,0,1,0,1.862h-62.3a10.895,10.895,0,0,0,0,21.789h62.3A.931.931,0,0,1,554.107,496.015Z" transform="translate(-249.54 -326.093)" fill="#ffad0e"/>
    <path id="Path_18" data-name="Path 18" d="M558.179,481.093H493a.186.186,0,1,1,0-.372h65.185a.186.186,0,1,1,0,.372Z" transform="translate(-255.101 -329.609)" fill="#ccc"/>
    <path id="Path_19" data-name="Path 19" d="M558.179,488.285H493a.186.186,0,1,1,0-.372h65.185a.186.186,0,1,1,0,.372Z" transform="translate(-255.101 -332.331)" fill="#ccc"/>
    <path id="Path_20" data-name="Path 20" d="M558.179,495.476H493a.186.186,0,1,1,0-.372h65.185a.186.186,0,0,1,0,.372Z" transform="translate(-255.101 -335.053)" fill="#ccc"/>
    <path id="Path_21" data-name="Path 21" d="M558.179,502.668H493a.186.186,0,1,1,0-.372h65.185a.186.186,0,0,1,0,.372Z" transform="translate(-255.101 -337.775)" fill="#ccc"/>
    <path id="Path_22" data-name="Path 22" d="M461.357,317.812H433.722a1.708,1.708,0,0,0-.756.176l-6.975,3.492a1.271,1.271,0,0,0,0,2.34l6.975,3.492a1.709,1.709,0,0,0,.756.176h27.636a1.45,1.45,0,0,0,1.531-1.346v-6.984A1.45,1.45,0,0,0,461.357,317.812Z" transform="translate(-229.518 -267.948)" fill="#3f3d56"/>
    <path id="Path_23" data-name="Path 23" d="M481.545,319.158v6.984a1.45,1.45,0,0,1-1.531,1.346h-5.506v-9.675h5.506a1.45,1.45,0,0,1,1.531,1.346Z" transform="translate(-248.174 -267.948)" fill="#ffad0e"/>
    <path id="Path_24" data-name="Path 24" d="M215.37,502.739A21.964,21.964,0,0,0,236.579,499c7.429-6.235,9.758-16.507,11.653-26.019l5.605-28.133L242.1,452.932c-8.439,5.811-17.069,11.808-22.912,20.225s-8.394,19.907-3.7,29.015" transform="translate(-149.214 -316.033)" fill="#03ff79"/>
    <path id="Path_25" data-name="Path 25" d="M217.268,558.567c-1.188-8.652-2.409-17.415-1.576-26.159.74-7.766,3.109-15.351,7.933-21.571a35.882,35.882,0,0,1,9.206-8.342c.921-.581,1.768.878.851,1.456a34.113,34.113,0,0,0-13.494,16.281c-2.938,7.472-3.41,15.617-2.9,23.555.306,4.8.955,9.569,1.609,14.331a.874.874,0,0,1-.589,1.037.849.849,0,0,1-1.037-.589Z" transform="translate(-150.109 -337.8)" fill="#0eaf59"/>
    <path id="Path_26" data-name="Path 26" d="M236.8,557.5a16.168,16.168,0,0,0,14.087,7.271c7.131-.339,13.076-5.316,18.428-10.041l15.83-13.976-10.477-.5c-7.534-.361-15.263-.7-22.439,1.626s-13.794,7.915-15.106,15.343" transform="translate(-158.203 -352.046)" fill="#03ff79"/>
    <path id="Path_27" data-name="Path 27" d="M212.926,584.9c5.717-10.116,12.348-21.358,24.2-24.951A27,27,0,0,1,247.3,558.9c1.081.093.811,1.759-.268,1.666a25.085,25.085,0,0,0-16.242,4.3,42.216,42.216,0,0,0-11.163,12.047c-1.849,2.815-3.5,5.749-5.161,8.68-.529.937-2.076.26-1.541-.687Z" transform="translate(-149.124 -359.16)" fill="#0db25a"/>
    <path id="Path_28" data-name="Path 28" d="M196.85,608.126a12.243,12.243,0,0,1,7.5-10.254v-5.848h9.809v6.032a12.236,12.236,0,0,1,7.094,10.07l2.306,26.811H194.544Z" transform="translate(-142.209 -371.737)" fill="#a2a2ff"/>
    <path id="Path_29" data-name="Path 29" d="M712.624,402.3l-2.918-1.229-2-14.627H681.049l-2.17,14.568-2.61,1.305a.62.62,0,0,0,.277,1.174h35.838a.62.62,0,0,0,.24-1.191Z" transform="translate(-324.41 -293.925)" fill="#2f2e41"/>
    <path id="Path_30" data-name="Path 30" d="M729.871,376.749H598.931a2.594,2.594,0,0,1-2.588-2.594V355.691H732.459v18.464a2.594,2.594,0,0,1-2.588,2.594Z" transform="translate(-294.288 -282.286)" fill="#1af07e"/>
    <path id="Path_31" data-name="Path 31" d="M732.523,319.713H596.15v-79a3.131,3.131,0,0,1,3.127-3.127H729.4a3.131,3.131,0,0,1,3.127,3.127Z" transform="translate(-294.215 -237.582)" fill="#3f3d56"/>
    <path id="Path_32" data-name="Path 32" d="M727.87,317.472H607.787a2.413,2.413,0,0,1-2.411-2.411V249.219a2.414,2.414,0,0,1,2.411-2.411H727.87a2.414,2.414,0,0,1,2.411,2.411v65.842A2.414,2.414,0,0,1,727.87,317.472Z" transform="translate(-297.707 -241.074)" fill="#eef"/>
    <path id="Path_33" data-name="Path 33" d="M750.138,396.72a7.219,7.219,0,0,1,10.979,1.412l16.243-2.888,4.162,9.443-23,3.756a7.258,7.258,0,0,1-8.389-11.723Z" transform="translate(-351.602 -297.09)" fill="#ffb6b6"/>
    <path id="Path_34" data-name="Path 34" d="M775.776,388.091l16.933-.211,2.143-.029,34.451-.434s9.356-8.925,17.5-18.115l-1.142-8.259a33.743,33.743,0,0,0-11.314-20.891c-11.667,7.8-18.434,23.228-18.434,23.228l-21.361,5.109-2.137.511-13.273,3.172Z" transform="translate(-362.203 -276.404)" fill="#0cb85c"/>
    <path id="Path_35" data-name="Path 35" d="M871.964,498.962H840.356c0,1.354-34.552,2.454-34.552,2.454a12.618,12.618,0,0,0-2.071,1.963,12.18,12.18,0,0,0-2.847,7.851v1.963a12.272,12.272,0,0,0,12.268,12.268h58.81a12.278,12.278,0,0,0,12.268-12.268V511.23A12.285,12.285,0,0,0,871.964,498.962Z" transform="translate(-371.707 -336.513)" fill="#0000a5"/>
    <rect id="Rectangle_2" data-name="Rectangle 2" width="12.758" height="73.642" transform="translate(464.513 188.459)" fill="#0000a5"/>
    <path id="Path_36" data-name="Path 36" d="M799.312,651.084c0,1.378,19.333.533,43.182.533s43.182.845,43.182-.533-19.333-12.31-43.182-12.31S799.312,649.706,799.312,651.084Z" transform="translate(-371.111 -389.432)" fill="#0000a5"/>
    <path id="Path_37" data-name="Path 37" d="M666.652,385.156h-9.5l-4.517-36.625h14.014Z" transform="translate(-247.022 -131.918)" fill="#ffb6b6"/>
    <path id="Path_38" data-name="Path 38" d="M770.773,652.358H740.157v-.387a11.917,11.917,0,0,1,11.916-11.917h18.7Z" transform="translate(-348.721 -389.916)" fill="#2f2e41"/>
    <path id="Path_39" data-name="Path 39" d="M621.5,385.156H612l-4.517-36.625H621.5Z" transform="translate(-229.931 -131.918)" fill="#ffb6b6"/>
    <path id="Path_40" data-name="Path 40" d="M725.618,652.358H695v-.387a11.917,11.917,0,0,1,11.916-11.917h18.7Z" transform="translate(-331.63 -389.916)" fill="#2f2e41"/>
    <circle id="Ellipse_4" data-name="Ellipse 4" cx="16.51" cy="16.51" r="16.51" transform="translate(460.114 9.367)" fill="#ffb6b6"/>
    <path id="Path_41" data-name="Path 41" d="M859.891,458.034s5.539,29.292-15.537,33.022-51.5,6.352-51.5,6.352l-13.663,63.746-18.356-1.639s2.441-76.735,8.445-82.739S813.225,452.8,813.225,452.8Z" transform="translate(-356.547 -319.04)" fill="#2f2e41"/>
    <path id="Path_42" data-name="Path 42" d="M801.121,441.471l-9.218,9.248s-66.559,10.721-69.127,26.094c-3.877,23.21-8.455,73.68-8.455,73.68l20.012-1.5,7.847-57.372,32.019-7.283,36.428-19.853Z" transform="translate(-338.942 -314.753)" fill="#2f2e41"/>
    <path id="Path_43" data-name="Path 43" d="M882.153,256.117c-1.63-3.075-3.7-9.2-6.99-10.34a26.148,26.148,0,0,0-5.63-1.2l-5.591,2.15,3.043-2.367q-.889-.053-1.776-.087l-3.772,1.451,1.93-1.5c-3.517-.036-7.147.33-9.872,2.471-2.323,1.825-4.625,8.739-5,11.67a22.323,22.323,0,0,0,.41,8.409l.955.908a11.713,11.713,0,0,0,.75-2.386,11.3,11.3,0,0,1,5.409-7.338l.052-.029c1.6-.9,3.547-.86,5.384-.794l8.727.314c2.1.076,4.361.208,6,1.525a9.874,9.874,0,0,1,2.4,3.474,73.519,73.519,0,0,1,2.4,7.834s.9-1.169,1.33-.3A30.088,30.088,0,0,0,883.564,263,13.679,13.679,0,0,0,882.153,256.117Z" transform="translate(-389.644 -240.096)" fill="#2f2e41"/>
    <path id="Path_44" data-name="Path 44" d="M983.63,290.871a7.219,7.219,0,0,0-6.534,8.936L963.82,309.6l3.984,9.519,18.554-14.093a7.258,7.258,0,0,0-2.728-14.155Z" transform="translate(-433.377 -257.745)" fill="#ffb6b6"/>
    <path id="Path_45" data-name="Path 45" d="M950.418,316.949l-33.282,36.964s-15.916-5.1-28.225-10.619l-5.53-16.984a33.776,33.776,0,0,1-1.617-12.221c17.064-4.541,36.912,12.355,36.912,12.355l24.913-19.514Z" transform="translate(-402.302 -263.829)" fill="#0cb85c"/>
    <path id="Path_46" data-name="Path 46" d="M855.739,408.584c-5.938-2.051-12.078-4.172-18.7-4.968l-.285-.034.079-.275c6.856-24.071,5.145-39.47,1.785-62.6a23.363,23.363,0,0,1,13.392-24.55l.041-.018,18.915-1.2.043,0,13.757,4.046a9.436,9.436,0,0,1,6.754,9.218c-.149,7.607.167,16.1.5,25.091.751,20.171,1.527,41.029-2.878,54.563l-.023.071-.059.046a22.436,22.436,0,0,1-14.345,5.039C868.542,413.006,862.241,410.829,855.739,408.584Z" transform="translate(-385.283 -266.859)" fill="#0cb85c"/>
    <path id="Path_47" data-name="Path 47" d="M718.114,661.347h-606.9a.88.88,0,0,1,0-1.759h606.9a.88.88,0,1,1,0,1.759Z" transform="translate(-110.337 -397.309)" fill="#ccc"/>
  </g>
</svg>
