<svg xmlns="http://www.w3.org/2000/svg" width="1479.063" height="884.207" viewBox="0 0 1479.063 884.207">
  <g id="logInIllustrationDemo" transform="translate(0 0)">
    <path id="Path_418" data-name="Path 418" d="M842.581,820.757c-18.936-16-30.438-41.277-27.422-65.884s21.7-47.228,45.933-52.453,51.859,9.239,59.22,32.912c4.051-45.641,8.719-93.194,32.984-132.062,21.972-35.193,60.028-60.376,101.271-64.881s84.668,12.51,110.39,45.063,32.02,79.879,14.005,117.253c-13.271,27.532-37.721,48.022-63.339,64.691a408.787,408.787,0,0,1-279.584,61.164Z" transform="translate(289.824 53.516)" fill="#4fffa1"/>
    <path id="Path_419" data-name="Path 419" d="M1078.466,546.4A674.51,674.51,0,0,0,880.274,814.39c-1.891,4.632,5.632,6.649,7.5,2.068A667.01,667.01,0,0,1,1083.965,551.9c3.884-3.162-1.649-8.637-5.5-5.5Z" transform="translate(335.533 58.964)" fill="#fff"/>
    <path id="Path_420" data-name="Path 420" d="M641.135,861.739c26.009-21.977,41.807-56.694,37.664-90.492s-29.8-64.868-63.089-72.045-71.229,12.69-81.339,45.205c-5.564-62.688-11.975-128-45.3-181.386-30.178-48.338-82.448-82.926-139.1-89.114S233.678,491.09,198.348,535.8s-43.98,109.714-19.236,161.047c18.228,37.815,51.81,65.958,87,88.853C378.364,858.746,517.616,889.21,650.116,869.71" transform="translate(-165 8.187)" fill="#03ff79"/>
    <path id="Path_421" data-name="Path 421" d="M221.426,484.9A918.632,918.632,0,0,1,349.448,612.029a931.767,931.767,0,0,1,100.961,149.42,927.957,927.957,0,0,1,43.233,91.543c2.6,6.363-7.735,9.132-10.3,2.84a911.844,911.844,0,0,0-83.319-157.643A917.584,917.584,0,0,0,288.277,560.147a915.437,915.437,0,0,0-74.406-67.688c-5.334-4.344,2.265-11.863,7.555-7.555Z" transform="translate(-132.058 15.67)" fill="#fff"/>
    <path id="Path_422" data-name="Path 422" d="M1045.027,1072.269H424.5V435.592c0-135.458,110.2-245.661,245.66-245.661H799.367c135.458,0,245.661,110.2,245.661,245.661Z" transform="translate(16.669 -189.931)" fill="#c7c7ff"/>
    <path id="Path_423" data-name="Path 423" d="M915.821,1072.266H424.5V435.589a243.76,243.76,0,0,1,46.915-144.412c1.129-1.538,2.254-3.056,3.415-4.558a245.6,245.6,0,0,1,52.285-50.748c1.121-.816,2.247-1.618,3.39-2.42A245.083,245.083,0,0,1,584.01,205.47c1.124-.426,2.268-.852,3.411-1.262a244.843,244.843,0,0,1,52.887-12.472c1.118-.153,2.266-.272,3.414-.392a248.7,248.7,0,0,1,52.882,0c1.145.12,2.293.239,3.424.393a244.8,244.8,0,0,1,52.873,12.47c1.144.409,2.288.836,3.415,1.263A244.46,244.46,0,0,1,809.2,233.039c1.142.784,2.285,1.586,3.411,2.388a248.2,248.2,0,0,1,31.253,26.46A245.252,245.252,0,0,1,865.5,286.624c1.157,1.5,2.283,3.015,3.409,4.551a243.759,243.759,0,0,1,46.917,144.414Z" transform="translate(16.669 -189.928)" fill="#3b3bad"/>
    <circle id="Ellipse_59" data-name="Ellipse 59" cx="27.201" cy="27.201" r="27.201" transform="translate(865.338 543.173)" fill="#6969ff"/>
    <path id="Path_424" data-name="Path 424" d="M607.265,540.888H586.423l-9.917-80.393,30.763,0Z" transform="translate(403.597 322.38)" fill="#ffb8b8"/>
    <path id="Path_425" data-name="Path 425" d="M584,504.28h40.2v25.309H558.695A25.309,25.309,0,0,1,584,504.28Z" transform="translate(391.128 353.033)" fill="#1c1c59"/>
    <path id="Path_426" data-name="Path 426" d="M668.265,540.888H647.422l-9.917-80.393,30.763,0Z" transform="translate(446.301 322.38)" fill="#ffb8b8"/>
    <path id="Path_427" data-name="Path 427" d="M645,504.28h40.2v25.309H619.7A25.309,25.309,0,0,1,645,504.28Z" transform="translate(433.832 353.033)" fill="#1c1c59"/>
    <path id="Path_428" data-name="Path 428" d="M699.4,620.107a18.263,18.263,0,0,1,7.668-26.934L777.916,397.89l34.863,19.027-80.9,186.619a18.362,18.362,0,0,1-32.486,16.572Z" transform="translate(206.91 -44.344)" fill="#ffb8b8"/>
    <path id="Path_429" data-name="Path 429" d="M825.4,646.6a18.263,18.263,0,0,1-4.918-27.569L798.533,412.458l39.676,1.813,9.121,203.194A18.362,18.362,0,0,1,825.4,646.6Z" transform="translate(278.52 -34.145)" fill="#ffb8b8"/>
    <circle id="Ellipse_60" data-name="Ellipse 60" cx="41.756" cy="41.756" r="41.756" transform="translate(998.87 233.865)" fill="#ffb8b8"/>
    <path id="Path_430" data-name="Path 430" d="M866.018,618.371H740.133l.151-.98c.226-1.464,22.436-146.953,6.055-194.549a20.083,20.083,0,0,1,10.318-24.793h0c23.413-11.026,68.356-24.6,106.289,8.346a48,48,0,0,1,16.082,39.775Z" transform="translate(237.636 -52.896)" fill="#f09d00"/>
    <path id="Path_431" data-name="Path 431" d="M777.692,486.191l-56.674-11.5,26.566-62.953a23.8,23.8,0,1,1,46.082,11.9Z" transform="translate(224.254 -47.147)" fill="#f09d00"/>
    <path id="Path_432" data-name="Path 432" d="M798.645,505.726l-3.407-78.1c-2.584-14.682,5.821-28.562,18.747-30.83s25.555,7.923,28.15,22.713l12.807,72.98Z" transform="translate(275.886 -45.333)" fill="#f09d00"/>
    <path id="Path_433" data-name="Path 433" d="M864.622,517.049c20.256,77.144,22.465,175.225,17,282.212l-27.2-3.4-49.3-204.009-27.2,207.409-30.6-1.7c-9.142-112.255-18.043-208.625-3.4-272.012Z" transform="translate(234.843 39.076)" fill="#013318"/>
    <path id="Path_434" data-name="Path 434" d="M825.262,409.442c-7.79,8.3-22.256,3.843-23.271-7.493a13.666,13.666,0,0,1,.017-2.645c.524-5.021,3.425-9.58,2.73-14.882a7.8,7.8,0,0,0-1.428-3.653c-6.207-8.312-20.779,3.718-26.637-3.807-3.592-4.614.63-11.879-2.126-17.036-3.638-6.806-14.415-3.449-21.173-7.176-7.519-4.147-7.069-15.684-2.12-22.7,6.036-8.558,16.619-13.124,27.071-13.782s20.831,2.167,30.588,5.97c11.086,4.321,22.08,10.291,28.9,20.04,8.3,11.855,9.095,27.793,4.946,41.655C840.238,392.365,831.624,402.666,825.262,409.442Z" transform="translate(242.875 -101.552)" fill="#2f2e41"/>
    <path id="Path_435" data-name="Path 435" d="M1522.673,711.241H267.52a2.024,2.024,0,1,1,0-4.049H1522.673a2.024,2.024,0,0,1,0,4.049Z" transform="translate(-94.646 172.191)" fill="#3f3d56"/>
    <path id="Path_436" data-name="Path 436" d="M729.56,812.554H508.55a10.991,10.991,0,0,1-11.05-10.906V308.337a10.992,10.992,0,0,1,11.05-10.906H729.56a10.991,10.991,0,0,1,11.05,10.906V801.646A10.992,10.992,0,0,1,729.56,812.554Z" transform="translate(67.774 -114.673)" fill="#fff8eb"/>
    <rect id="Rectangle_320" data-name="Rectangle 320" width="243.111" height="3.4" transform="translate(565.275 342.378)" fill="#1c1c59"/>
    <rect id="Rectangle_321" data-name="Rectangle 321" width="243.111" height="3.4" transform="translate(566.125 536.373)" fill="#1c1c59"/>
    <rect id="Rectangle_322" data-name="Rectangle 322" width="3.4" height="516.822" transform="translate(641.778 182.758)" fill="#1c1c59"/>
    <rect id="Rectangle_323" data-name="Rectangle 323" width="3.4" height="516.822" transform="translate(726.782 182.758)" fill="#1c1c59"/>
  </g>
</svg>
