<svg xmlns="http://www.w3.org/2000/svg" width="704.005" height="543.257" viewBox="0 0 704.005 543.257">
  <g id="Group_1" data-name="Group 1" transform="translate(-317.366 -900)">
    <g id="Group_22" data-name="Group 22" transform="translate(-835.048 635.917)">
      <g id="undraw_designer_re_5v95" transform="translate(1213.741 264.128)">
        <path id="Path_113" data-name="Path 113" d="M736.344,223.325a264.477,264.477,0,0,0-17.384-27.281q-6.67-9.188-14.1-17.762h-.012a266.394,266.394,0,0,0-29.139-28.842q-3.2-2.722-6.5-5.332A264.657,264.657,0,0,0,603.99,106l.208,34.272,2.244,390.676H411.929L400.989,141l.815-33.724C306.44,147.388,239.481,241.689,239.481,351.635a265.192,265.192,0,0,0,8.615,67.251,260.632,260.632,0,0,0,8.788,27.38q1.858,4.877,3.92,9.668c.663,1.554,1.338,3.1,2.038,4.632.9,2.007,1.833,4.007,2.793,5.983q1.115,2.332,2.291,4.632,1.514,3.019,3.128,5.989c.83,1.554,1.685,3.1,2.552,4.632a266.058,266.058,0,0,0,52.908,66.174q9,8.166,18.734,15.483a265.023,265.023,0,0,0,318.414,0q5.3-3.976,10.373-8.218,3.372-2.806,6.633-5.716c.576-.514,1.152-1.028,1.722-1.548a266.082,266.082,0,0,0,49.582-60.451A260.032,260.032,0,0,0,745.4,462.034q1.589-3.456,3.078-6.973A261.342,261.342,0,0,0,759.983,422q.715-2.61,1.381-5.239v-.006c.074-.3.155-.613.229-.917q.687-2.769,1.319-5.561v-.006q2.044-8.983,3.45-18.183.177-1.18.347-2.36c.043-.285.087-.57.118-.855v-.006q1-7.107,1.629-14.319.966-11.324.972-22.908a263.757,263.757,0,0,0-33.084-128.31Z" transform="translate(-210.497 -73.397)" fill="#c7ffe1"/>
        <path id="Path_114" data-name="Path 114" d="M883.772,657.073c15.683-21.191,21.715-51.041,9.515-74.412a121.467,121.467,0,0,1-57.509,60.4c-9.928,4.867-21.477,9.247-26.072,19.3-2.859,6.258-2.315,13.646-.016,20.131s6.208,12.254,10.077,17.944l.2,1.705C844.324,692.042,868.089,678.264,883.772,657.073Z" transform="translate(-383.947 -218.885)" fill="#ffd991"/>
        <path id="Path_115" data-name="Path 115" d="M898.271,582.663a103.822,103.822,0,0,1-21.6,60.116,44.713,44.713,0,0,1-10.021,9.788,25.641,25.641,0,0,1-12.82,4.216c-4.26.3-8.652.124-12.764,1.46A15.7,15.7,0,0,0,831.674,667c-2.276,5.024-2.611,10.567-2.751,16-.155,6.031-.22,12.3-3.065,17.779-.345.664.706,1.16,1.05.5,4.949-9.538,1.736-20.692,4.685-30.719,1.376-4.679,4.171-8.971,8.842-10.846,4.084-1.64,8.614-1.457,12.93-1.728a27.365,27.365,0,0,0,12.689-3.656,41.329,41.329,0,0,0,10.361-9.367,100.724,100.724,0,0,0,15.779-27.242,105.662,105.662,0,0,0,7.235-35.153c.024-.746-1.134-.64-1.158.1Z" transform="translate(-389.45 -218.7)" fill="#fff"/>
        <path id="Path_116" data-name="Path 116" d="M905.546,659.79a15.577,15.577,0,0,0,19.839-3.642c.471-.581-.409-1.34-.881-.758a14.424,14.424,0,0,1-18.461,3.35C905.4,658.364,904.9,659.416,905.546,659.79Z" transform="translate(-413.702 -241.02)" fill="#fff"/>
        <path id="Path_117" data-name="Path 117" d="M868.3,679.88a30.023,30.023,0,0,1,2.213-21.767c.342-.665-.708-1.162-1.05-.5a31.23,31.23,0,0,0-2.257,22.656c.2.721,1.3.326,1.094-.391Z" transform="translate(-401.735 -241.667)" fill="#fff"/>
        <path id="Path_118" data-name="Path 118" d="M922.459,614.476a8.817,8.817,0,0,1-5.759-6.069c-.194-.723-1.287-.327-1.094.391a9.88,9.88,0,0,0,6.356,6.728.6.6,0,0,0,.774-.277.584.584,0,0,0-.277-.774Z" transform="translate(-416.857 -226.627)" fill="#fff"/>
        <path id="Path_119" data-name="Path 119" d="M796.753,555.891c.108.455.216.91.318,1.373a116.123,116.123,0,0,1,2.76,18.633c.04.485.073.976.1,1.461a122.417,122.417,0,0,1-5.84,44.689,118.867,118.867,0,0,1-6.9,16.692c-3.757,7.431-8.423,15.189-9.475,23.192a20.42,20.42,0,0,0-.2,2.516l31.13,29.638c.1.032.2.071.308.1l1.189,1.24c.16-.268.32-.549.479-.817.093-.155.18-.316.273-.471.06-.1.12-.211.18-.3a1.1,1.1,0,0,0,.053-.1c.06-.092.106-.183.16-.268q1.347-2.353,2.665-4.734c.007-.007.007-.007.007-.021,6.667-12.108,12.381-24.88,15.975-38.112.108-.4.223-.8.317-1.215a113.453,113.453,0,0,0,3.278-18.219,100.283,100.283,0,0,0,.431-10.138,83.387,83.387,0,0,0-4.335-25.711c-5.553-16.525-16.329-31.09-31.689-38.85C797.538,556.275,797.152,556.083,796.753,555.891Z" transform="translate(-374.715 -210.715)" fill="#f09d00"/>
        <path id="Path_120" data-name="Path 120" d="M803.5,556.117a103.823,103.823,0,0,1,18.949,61,44.711,44.711,0,0,1-2.108,13.849,25.643,25.643,0,0,1-7.7,11.085c-3.217,2.808-6.833,5.308-9.312,8.85a15.7,15.7,0,0,0-2.23,12.646c1.208,5.382,4.277,10.009,7.436,14.43,3.507,4.908,7.228,9.951,8.257,16.041.125.738,1.262.5,1.138-.236-1.791-10.6-11.072-17.566-14.754-27.348-1.718-4.564-2.071-9.674.53-13.983,2.274-3.768,6-6.349,9.283-9.165a27.363,27.363,0,0,0,7.931-10.558,41.333,41.333,0,0,0,2.633-13.717,100.728,100.728,0,0,0-3.8-31.251,105.661,105.661,0,0,0-15.388-32.423c-.43-.609-1.291.172-.864.778Z" transform="translate(-381.77 -210.479)" fill="#fff"/>
        <path id="Path_121" data-name="Path 121" d="M832.447,627.463a15.577,15.577,0,0,0,13.647-14.852.582.582,0,0,0-1.16-.075,14.424,14.424,0,0,1-12.723,13.789C831.469,626.414,831.711,627.551,832.447,627.463Z" transform="translate(-391.272 -227.844)" fill="#fff"/>
        <path id="Path_122" data-name="Path 122" d="M815.057,670.086a30.022,30.022,0,0,1-11.339-18.712c-.127-.737-1.265-.5-1.138.236a31.228,31.228,0,0,0,11.839,19.448c.6.454,1.231-.52.638-.971Z" transform="translate(-382.363 -239.721)" fill="#fff"/>
        <path id="Path_123" data-name="Path 123" d="M817.757,586.136a8.817,8.817,0,0,1-8.252-1.378c-.59-.461-1.224.513-.638.971a9.88,9.88,0,0,0,9.126,1.545.6.6,0,0,0,.451-.687A.584.584,0,0,0,817.757,586.136Z" transform="translate(-384.214 -219.489)" fill="#fff"/>
        <path id="Path_124" data-name="Path 124" d="M210.134,486.014c-13.909-22.4-17.5-52.637-3.437-74.939a121.468,121.468,0,0,0,52.411,64.869c9.5,5.658,20.654,10.962,24.417,21.359,2.341,6.469,1.2,13.789-1.62,20.065s-7.184,11.709-11.5,17.065l-.342,1.683C246.61,524.074,224.043,508.409,210.134,486.014Z" transform="translate(-197.764 -166.514)" fill="#55f796"/>
        <path id="Path_125" data-name="Path 125" d="M210.787,411.113a103.823,103.823,0,0,0,16.641,61.672,44.714,44.714,0,0,0,9.193,10.57,25.643,25.643,0,0,0,12.435,5.244c4.221.65,8.613.827,12.6,2.492a15.7,15.7,0,0,1,8.651,9.489c1.86,5.193,1.744,10.744,1.442,16.169-.336,6.023-.78,12.274,1.61,17.97.29.69-.8,1.1-1.087.41-4.158-9.909-.048-20.764-2.173-31-.991-4.775-3.428-9.28-7.931-11.529-3.938-1.966-8.467-2.152-12.747-2.774a27.363,27.363,0,0,1-12.35-4.675,41.333,41.333,0,0,1-9.565-10.178A100.728,100.728,0,0,1,214,446.543a105.665,105.665,0,0,1-4.354-35.625c.037-.745,1.182-.545,1.146.2Z" transform="translate(-201.35 -166.323)" fill="#fff"/>
        <path id="Path_126" data-name="Path 126" d="M220.685,489.3a15.577,15.577,0,0,1-19.477-5.242c-.422-.617.517-1.3.939-.684a14.424,14.424,0,0,0,18.128,4.839C220.95,487.89,221.356,488.98,220.685,489.3Z" transform="translate(-198.782 -188.508)" fill="#fff"/>
        <path id="Path_127" data-name="Path 127" d="M263.071,512.917a30.023,30.023,0,0,0-.436-21.875c-.287-.691.8-1.1,1.087-.41a31.228,31.228,0,0,1,.408,22.764C263.869,514.1,262.812,513.616,263.071,512.917Z" transform="translate(-217.549 -190.687)" fill="#fff"/>
        <path id="Path_128" data-name="Path 128" d="M213,443.445a8.817,8.817,0,0,0,6.233-5.581c.252-.7,1.309-.222,1.059.479a9.88,9.88,0,0,1-6.882,6.189.6.6,0,0,1-.749-.339.584.584,0,0,1,.339-.748Z" transform="translate(-202.301 -174.585)" fill="#fff"/>
        <path id="Path_129" data-name="Path 129" d="M319.245,394.606c-.145.445-.29.89-.429,1.342a116.129,116.129,0,0,0-4.265,18.347c-.079.48-.152.967-.217,1.448a122.412,122.412,0,0,0,2.188,45.016,118.878,118.878,0,0,0,5.522,17.2c3.141,7.712,7.16,15.824,7.558,23.885a20.389,20.389,0,0,1,0,2.524l-33.436,27.01c-.107.023-.208.054-.315.078l-1.286,1.139c-.137-.28-.274-.573-.411-.853-.08-.162-.153-.33-.234-.492-.051-.11-.1-.22-.155-.316-.017-.036-.034-.073-.045-.1-.052-.1-.091-.191-.137-.28q-1.151-2.455-2.272-4.935c-.006-.008-.006-.008,0-.021-5.661-12.61-10.318-25.8-12.825-39.285-.075-.406-.157-.819-.217-1.237a113.439,113.439,0,0,1-1.786-18.425,100.289,100.289,0,0,1,.395-10.139,83.391,83.391,0,0,1,6.41-25.273c6.877-16.019,18.8-29.661,34.742-36.146C318.43,394.924,318.831,394.764,319.245,394.606Z" transform="translate(-221.786 -161.487)" fill="#0bac4b"/>
        <path id="Path_130" data-name="Path 130" d="M327.179,394.849a103.822,103.822,0,0,0-23.844,59.261,44.709,44.709,0,0,0,.976,13.974,25.644,25.644,0,0,0,6.771,11.674c2.978,3.061,6.379,5.846,8.562,9.577a15.7,15.7,0,0,1,1.2,12.785c-1.641,5.266-5.076,9.629-8.584,13.778-3.895,4.607-8.013,9.331-9.534,15.317-.184.725-1.3.4-1.115-.327,2.646-10.415,12.463-16.608,16.928-26.058,2.083-4.41,2.85-9.474.609-13.98-1.96-3.941-5.465-6.816-8.508-9.889a27.363,27.363,0,0,1-7.046-11.168,41.333,41.333,0,0,1-1.51-13.885,100.724,100.724,0,0,1,6.33-30.839A105.664,105.664,0,0,1,326.381,394c.478-.573,1.272.276.8.845Z" transform="translate(-229.452 -161.245)" fill="#fff"/>
        <path id="Path_131" data-name="Path 131" d="M298.763,463.235a15.577,15.577,0,0,1-12.4-15.912.581.581,0,0,1,1.162.019,14.424,14.424,0,0,0,11.561,14.778C299.823,462.269,299.492,463.383,298.763,463.235Z" transform="translate(-224.803 -177.409)" fill="#fff"/>
        <path id="Path_132" data-name="Path 132" d="M312.665,507.6a30.023,30.023,0,0,0,12.822-17.729c.187-.725,1.3-.4,1.115.327a31.229,31.229,0,0,1-13.38,18.422c-.631.4-1.185-.618-.557-1.02Z" transform="translate(-232.75 -190.44)" fill="#fff"/>
        <path id="Path_133" data-name="Path 133" d="M318.7,423.711a8.817,8.817,0,0,0,8.337-.7c.626-.411,1.179.611.557,1.02a9.88,9.88,0,0,1-9.221.8.6.6,0,0,1-.394-.721.584.584,0,0,1,.721-.394Z" transform="translate(-234.449 -170.127)" fill="#fff"/>
        <circle id="Ellipse_16" data-name="Ellipse 16" cx="36.813" cy="36.813" r="36.813" transform="translate(233.761 17.264)" fill="#ffd991"/>
        <path id="Path_134" data-name="Path 134" d="M696.78,121.948a135.276,135.276,0,0,0-10.491-9.959,80.241,80.241,0,0,0-23.961-14.511,55.258,55.258,0,0,0-10.28-2.707c-.421-.068-.836-.136-1.257-.192a.467.467,0,0,0-.093,0,1.116,1.116,0,0,0-.2-.037c-.861-.111-1.722-.2-2.589-.26a44.86,44.86,0,0,0-13.9,1.251,46.218,46.218,0,0,0-7.68,2.675,68.735,68.735,0,0,0-7.2,4.081,43.284,43.284,0,0,1-3.84,2.075,47.893,47.893,0,0,1-12.077,3.865,54.225,54.225,0,0,1-8.547.842,20.689,20.689,0,0,0-7.2,1.034,17.245,17.245,0,0,0-10.51,11.383,1.109,1.109,0,0,0,.5,1.22c.638.458,1.257.979,1.932,1.387a6.063,6.063,0,0,0,1.883.514q1.6.334,3.2.65,5.9,1.17,11.847,2.075,11.965,1.812,24.067,2.552a1.2,1.2,0,0,0,.149.012,270.855,270.855,0,0,0,27.374.266c1.381-.056,2.756-.124,4.137-.2q8.63-.483,17.217-1.524,7.943-.966,15.823-2.4,5.63-1.022,11.216-2.279a1.1,1.1,0,0,0,.477-1.814Z" transform="translate(-313.492 -69.792)" fill="#c7c7ff" opacity="0.65"/>
        <path id="Path_135" data-name="Path 135" d="M586.65,192.6a120.244,120.244,0,0,0-17.533-15.433c-2.1-1.474-4.261-2.861-6.484-4.131a68.722,68.722,0,0,0-8.472-4.143c-.65-.266-1.307-.52-1.963-.762a54.881,54.881,0,0,0-11.538-2.9c-.031-.006-.062,0-.093-.006l-.192-.037a42.622,42.622,0,0,0-5.76-.353c-1.381,0-2.768.074-4.143.211a45.828,45.828,0,0,0-6.59,1.14c-1.071.266-2.137.576-3.183.929a45.462,45.462,0,0,0-4.49,1.746l-.068.031a66.9,66.9,0,0,0-7.135,4.05c-.05.031-.105.062-.155.093a45,45,0,0,1-8.224,3.852,50.1,50.1,0,0,1-7.543,1.994,53.419,53.419,0,0,1-8.547.836,20.494,20.494,0,0,0-7.19,1.04,17.255,17.255,0,0,0-10.516,11.383,1.117,1.117,0,0,0,.5,1.22c.638.458,1.263.972,1.932,1.381a5.941,5.941,0,0,0,1.883.514c1.065.223,2.13.446,3.2.656q5.9,1.171,11.854,2.069,8.166,1.236,16.4,1.976,3.9.362,7.81.6,10.024.6,20.066.471,2.072-.028,4.143-.093,12.3-.362,24.525-1.846a269.739,269.739,0,0,0,27.033-4.676,1.092,1.092,0,0,0,.477-1.808Z" transform="translate(-279.879 -91.356)" fill="#c7c7ff" opacity="0.56"/>
        <path id="Path_136" data-name="Path 136" d="M492.985,62.376l32.432,448.171L460.553,516.3V68.078C468.282,62.04,479.377,61.1,492.985,62.376Z" transform="translate(-277.972 -59.932)" fill="#9e9eff" opacity="0.67"/>
        <path id="Path_137" data-name="Path 137" d="M723.4,62.376,690.968,510.548l64.863,5.757V68.078C748.1,62.04,737.007,61.1,723.4,62.376Z" transform="translate(-348.3 -59.932)" fill="#9e9eff"/>
        <path id="Path_138" data-name="Path 138" d="M685.513,67.418c-2.013-4.935-6.292-8.342-11.241-8.342H468.06c-6.88,0-12.473,6.6-12.473,14.724V519.247a15.917,15.917,0,0,0,4.3,11.113,11.818,11.818,0,0,0,5.4,3.239,10.307,10.307,0,0,0,2.775.373H674.273a10.315,10.315,0,0,0,2.775-.373c5.549-1.492,9.7-7.355,9.7-14.351V73.8a16.912,16.912,0,0,0-1.233-6.382Zm-2.9,451.828c0,5.425-3.741,9.84-8.336,9.84H468.06c-3.809,0-7.035-3.034-8.02-7.165a11.428,11.428,0,0,1-.316-2.676V73.8c0-5.425,3.741-9.833,8.336-9.833H674.273a7.073,7.073,0,0,1,2.477.446c3.388,1.243,5.859,4.979,5.859,9.387Z" transform="translate(-276.456 -59.077)" fill="#9785dd"/>
        <path id="Path_174" data-name="Path 174" d="M0,0H227.021V4.14H0Z" transform="translate(181.2 135.4)" fill="#6969ff"/>
        <path id="Path_175" data-name="Path 175" d="M0,0H227.021V4.14H0Z" transform="translate(181.2 49.935)" fill="#6969ff"/>
        <path id="Path_176" data-name="Path 176" d="M0,0H227.021V4.14H0Z" transform="translate(181.2 204.403)" fill="#6969ff"/>
        <path id="Path_177" data-name="Path 177" d="M0,0H4.14V261.2H0Z" transform="translate(250.731 1.858)" fill="#6969ff"/>
        <rect id="Rectangle_217" data-name="Rectangle 217" width="4.14" height="261.198" transform="translate(334.551 1.858)" fill="#6969ff"/>
        <path id="Path_139" data-name="Path 139" d="M694.942,705.353H423.069a18.651,18.651,0,0,0-18.629,18.629,18.442,18.442,0,0,0,1.344,6.93,18.63,18.63,0,0,0,17.285,11.7H694.942a18.63,18.63,0,0,0,16.077-9.228,18.02,18.02,0,0,0,1.214-2.477,18.44,18.44,0,0,0,1.344-6.93,18.656,18.656,0,0,0-18.635-18.624Z" transform="translate(-260.846 -256.334)" fill="#f09d00"/>
        <rect id="Rectangle_218" data-name="Rectangle 218" width="225.641" height="13.801" transform="translate(182.58 253.396)" fill="#6969ff"/>
        <path id="Path_140" data-name="Path 140" d="M418.858,358.755H423a7.59,7.59,0,0,1,7.59,7.59H411.268A7.59,7.59,0,0,1,418.858,358.755Z" transform="translate(-125.528 -109.499)" fill="#ccc"/>
        <circle id="ab6171fa-7d69-4734-b81c-8dff60f9761b" cx="42.762" cy="42.762" r="42.762" transform="translate(256.619 206.792)" fill="#ffb8b8"/>
        <path id="bf427902-b9bf-4946-b5d7-5c1c7e04535e" d="M557.49,347.291c.323-4.911,3.571-9.936,13.888-12.562,0,0,17.707-22.643,41.769-10.769,0,0,11.665-2.007,20.315,10.1,0,0,8.576-5.058,12.194,3.907,0,0,10.058,18.287,6.355,36.939s-5.6,20.98-5.6,20.98,4.72-38.582-22.466-35.907-49.073-6.885-55.229,14.047c-5.112,17.381-4.468,26.408-4.468,26.408s-17.1-17.339-11.283-30.992C555.94,362.456,556.992,354.864,557.49,347.291Z" transform="translate(-305.811 -138.874)" fill="#2f2e41"/>
        <path id="Path_141" data-name="Path 141" d="M461.292,678.219H697.821c-1.581-18.042-2.614-87.011-2.614-91.55,0-20.021-16.382-41.869-16.382-41.869l-5.864-3.241-48.97-15.278-12.673-16.462a14.092,14.092,0,0,0-11.286-5.511l-40.032.3a14.135,14.135,0,0,0-9.494,3.762l-24.789,23-36.359,17.36-.062-.062-.38.283-5.4,3.886-3.471,2.508s-9.105,10.924-16.382,43.688C462.573,603.961,461.8,667.754,461.292,678.219Z" transform="translate(-278.198 -194.971)" fill="#3232cf"/>
        <path id="Path_142" data-name="Path 142" d="M724.189,742.14c-.57.52-1.146,1.034-1.722,1.548q-3.27,2.908-6.633,5.716-5.081,4.236-10.373,8.218H387.047q-9.726-7.3-18.734-15.483Z" transform="translate(-249.819 -267.562)" fill="#ffc454"/>
        <path id="Path_143" data-name="Path 143" d="M463.353,683.243H346.3l2.477-11.767h112.1Z" transform="translate(-105.699 -204.948)" fill="#2f2e41"/>
        <path id="Path_144" data-name="Path 144" d="M846.249,674.4H815.791a4.7,4.7,0,0,0-3.611,1.672,6.829,6.829,0,0,0-1.288-.124,7.224,7.224,0,1,0,0,14.449,7.143,7.143,0,0,0,3.145-.73l.51,6.242,2.019,24.674a4.5,4.5,0,0,0,.384.886,4.748,4.748,0,0,0,4.168,2.477h19.8a4.765,4.765,0,0,0,4.174-2.477,4.9,4.9,0,0,0,.378-.886l5.326-40.02a4.763,4.763,0,0,0-4.552-6.162Zm-35.357,13.93a5.162,5.162,0,0,1,0-10.324c.093,0,.18.025.272.031a4.729,4.729,0,0,0,.074,2.521l2.18,7.085a5.076,5.076,0,0,1-2.527.687Z" transform="translate(-382.698 -246.885)" fill="#3f3d56"/>
        <path id="Path_145" data-name="Path 145" d="M678.495,485.931H485.69a6.259,6.259,0,0,0-6.249,6.249v130.1a6.255,6.255,0,0,0,6.249,6.249h192.8a6.255,6.255,0,0,0,6.249-6.249V492.18a6.259,6.259,0,0,0-6.244-6.249Z" transform="translate(-283.737 -189.362)" fill="#3f3d56"/>
        <path id="Path_146" data-name="Path 146" d="M637.569,635.977h-45.1a2.407,2.407,0,0,0-2.4,2.409v71.252h49.917V638.386a2.408,2.408,0,0,0-2.41-2.409Zm-22.4,40.484a5.351,5.351,0,0,1-5.326-5.326v-8.218a5.326,5.326,0,0,1,10.652,0v8.218A5.351,5.351,0,0,1,615.169,676.461Z" transform="translate(-317.501 -235.159)" fill="#2f2e41"/>
        <path id="Path_147" data-name="Path 147" d="M589.839,738.717v6.874a1.346,1.346,0,0,0,1.344,1.344h47.539a1.351,1.351,0,0,0,1.344-1.344v-6.874Z" transform="translate(-317.433 -266.517)" fill="#3f3d56"/>
        <circle id="Ellipse_17" data-name="Ellipse 17" cx="3.044" cy="3.044" r="3.044" transform="translate(387.613 425.476)" fill="#2f2e41"/>
        <path id="Path_148" data-name="Path 148" d="M523,669.493a1.065,1.065,0,0,0-1.065,1.065v5.481a1.065,1.065,0,0,0,2.13,0v-5.481A1.065,1.065,0,0,0,523,669.493Z" transform="translate(-296.707 -245.388)" fill="#2f2e41"/>
        <path id="Path_149" data-name="Path 149" d="M531.324,669.493a1.065,1.065,0,0,0-1.065,1.065v5.481a1.065,1.065,0,0,0,2.13,0v-5.481a1.065,1.065,0,0,0-1.065-1.065Z" transform="translate(-299.248 -245.388)" fill="#2f2e41"/>
        <path id="Path_150" data-name="Path 150" d="M539.649,669.493a1.065,1.065,0,0,0-1.065,1.065v5.481a1.065,1.065,0,0,0,2.13,0v-5.481A1.065,1.065,0,0,0,539.649,669.493Z" transform="translate(-301.789 -245.388)" fill="#2f2e41"/>
        <path id="Path_151" data-name="Path 151" d="M547.975,669.493a1.065,1.065,0,0,0-1.065,1.065v5.481a1.065,1.065,0,0,0,2.13,0v-5.481A1.065,1.065,0,0,0,547.975,669.493Z" transform="translate(-304.33 -245.388)" fill="#2f2e41"/>
        <circle id="Ellipse_18" data-name="Ellipse 18" cx="16.102" cy="16.102" r="16.102" transform="translate(232.158 442.993)" fill="#ffb8b8"/>
        <circle id="Ellipse_19" data-name="Ellipse 19" cx="16.102" cy="16.102" r="16.102" transform="translate(344.649 446.09)" fill="#ffb8b8"/>
        <path id="Ellipse_20" data-name="Ellipse 20" d="M21.256,0A21.256,21.256,0,1,1,0,21.256,21.256,21.256,0,0,1,21.256,0Z" transform="translate(100.02 225.215)" fill="#02e06b" opacity="0.74"/>
        <circle id="Ellipse_21" data-name="Ellipse 21" cx="21.256" cy="21.256" r="21.256" transform="translate(121.276 225.215)" fill="#3232cf" opacity="0.74"/>
        <circle id="Ellipse_22" data-name="Ellipse 22" cx="21.256" cy="21.256" r="21.256" transform="translate(110.828 208.274)" fill="#f09d00" opacity="0.74"/>
        <rect id="Rectangle_219" data-name="Rectangle 219" width="57.23" height="1.239" transform="translate(133.068 240.592) rotate(-17.441)" fill="#3f3d56"/>
        <circle id="Ellipse_23" data-name="Ellipse 23" cx="2.477" cy="2.477" r="2.477" transform="translate(185.538 221.354)" fill="#3f3d56"/>
        <path id="Path_158" data-name="Path 158" d="M405.558,282.882v1.257a6.521,6.521,0,0,0-1.263-.124h-6.478v13.91a7.771,7.771,0,0,1-7.766,7.766h-9.575v2.143a6.492,6.492,0,0,0,.5,2.5h-1.325a7.627,7.627,0,0,1-.415-2.5v-2.143h-5.264v-1.239h5.264v-13.91A7.771,7.771,0,0,1,387,282.777h9.575v-2.168h1.239v2.168h6.478a7.731,7.731,0,0,1,1.266.105Z" transform="translate(-251.546 -126.693)" fill="#6c63ff"/>
        <path id="Path_159" data-name="Path 159" d="M386.105,269.467H368.814a7.771,7.771,0,0,0-7.766,7.766v17.291a7.771,7.771,0,0,0,7.766,7.766H386.1a7.771,7.771,0,0,0,7.766-7.766V277.208a7.769,7.769,0,0,0-7.766-7.741Zm6.528,25.057a6.536,6.536,0,0,1-6.528,6.528H368.814a6.536,6.536,0,0,1-6.527-6.528V277.233a6.536,6.536,0,0,1,6.528-6.528h17.291a6.535,6.535,0,0,1,6.528,6.5Z" transform="translate(-247.601 -123.292)" fill="#3f3d56"/>
        <path id="Path_160" data-name="Path 160" d="M381.55,305.406v1.239h1.239v-1.239Zm0,0v1.239h1.239v-1.239Zm26.32-21.571a7.742,7.742,0,0,0-1.263-.105H389.316a7.771,7.771,0,0,0-7.766,7.766v17.291a7.631,7.631,0,0,0,.415,2.5,7.769,7.769,0,0,0,7.351,5.264h17.291a7.771,7.771,0,0,0,7.766-7.766V291.5a7.767,7.767,0,0,0-6.5-7.665Zm5.264,24.952a6.536,6.536,0,0,1-6.528,6.528h-17.29a6.537,6.537,0,0,1-6.528-6.528V291.5a6.536,6.536,0,0,1,6.528-6.528h17.291a6.53,6.53,0,0,1,6.528,6.528Zm-31.585-3.381v1.239h1.239v-1.239Z" transform="translate(-253.859 -127.645)" fill="#3f3d56"/>
        <path id="Path_161" data-name="Path 161" d="M330.829,547.3H257.378a1.933,1.933,0,0,0-1.932,1.926v4.354a260.662,260.662,0,0,0,8.788,27.38h66.595a1.924,1.924,0,0,0,1.926-1.926V549.228a1.928,1.928,0,0,0-1.926-1.926Z" transform="translate(-215.37 -208.093)" fill="#3232cf"/>
        <path id="Path_162" data-name="Path 162" d="M329.413,609.663H273.737c.663,1.554,1.338,3.1,2.038,4.632h53.639C332.435,614.339,332.4,609.62,329.413,609.663Z" transform="translate(-220.952 -227.127)" fill="#3232cf"/>
        <path id="Path_163" data-name="Path 163" d="M331.535,624.941H280.69q1.115,2.332,2.291,4.633h48.554C334.558,629.617,334.527,624.9,331.535,624.941Z" transform="translate(-223.075 -231.79)" fill="#3232cf"/>
        <path id="Path_164" data-name="Path 164" d="M333.916,640.229H288.489q1.245,2.332,2.552,4.632h42.875C336.938,644.9,336.908,640.185,333.916,640.229Z" transform="translate(-225.455 -236.456)" fill="#3232cf"/>
        <path id="Path_165" data-name="Path 165" d="M899.6,229.333h-.353a7.09,7.09,0,0,1,3.164.748H900.8a6.535,6.535,0,0,0-6.527,6.527V253.9a6.535,6.535,0,0,0,6.527,6.527h1.024a7.1,7.1,0,0,1-2.582.49h.353a7.155,7.155,0,0,0,7.147-7.147V236.48a7.155,7.155,0,0,0-7.146-7.147Z" transform="translate(-410.355 -111.042)" fill="#3f3d56"/>
        <path id="Path_166" data-name="Path 166" d="M899.6,229.333h-.353a7.09,7.09,0,0,1,3.164.748H900.8a6.535,6.535,0,0,0-6.527,6.527V253.9a6.535,6.535,0,0,0,6.527,6.527h1.024a7.1,7.1,0,0,1-2.582.49h.353a7.155,7.155,0,0,0,7.147-7.147V236.48a7.155,7.155,0,0,0-7.146-7.147Z" transform="translate(-410.355 -111.042)" fill="#eb722d" opacity="0.66"/>
        <path id="Path_167" data-name="Path 167" d="M833.639,229.333h-.353a7.09,7.09,0,0,1,3.164.748h-1.606a6.535,6.535,0,0,0-6.527,6.527V253.9a6.535,6.535,0,0,0,6.527,6.527h1.024a7.1,7.1,0,0,1-2.582.49h.353a7.155,7.155,0,0,0,7.146-7.147V236.48a7.155,7.155,0,0,0-7.146-7.147Z" transform="translate(-390.221 -111.042)" fill="#6c63ff"/>
        <path id="Path_168" data-name="Path 168" d="M833.639,229.333h-.353a7.09,7.09,0,0,1,3.164.748h-1.606a6.535,6.535,0,0,0-6.527,6.527V253.9a6.535,6.535,0,0,0,6.527,6.527h1.024a7.1,7.1,0,0,1-2.582.49h.353a7.155,7.155,0,0,0,7.146-7.147V236.48a7.155,7.155,0,0,0-7.146-7.147Z" transform="translate(-390.221 -111.042)" fill="#0bac4b"/>
        <path id="Path_169" data-name="Path 169" d="M826.392,260.5a6.535,6.535,0,0,1-6.527-6.527V236.686a6.535,6.535,0,0,1,6.527-6.527H828a7.092,7.092,0,0,0-3.164-.748H807.542a7.155,7.155,0,0,0-7.147,7.147V253.85a7.155,7.155,0,0,0,7.146,7.15h17.292a7.1,7.1,0,0,0,2.582-.49Z" transform="translate(-381.699 -111.066)" fill="#03ff79"/>
        <path id="Path_170" data-name="Path 170" d="M892.354,260.5a6.535,6.535,0,0,1-6.527-6.527V236.686a6.535,6.535,0,0,1,6.527-6.527h1.606a7.092,7.092,0,0,0-3.164-.748H873.5a7.155,7.155,0,0,0-7.147,7.147V253.85A7.155,7.155,0,0,0,873.5,261h17.3a7.1,7.1,0,0,0,2.582-.49Z" transform="translate(-401.832 -111.066)" fill="#f09d00"/>
        <path id="Path_171" data-name="Path 171" d="M932.9,235.6a264.486,264.486,0,0,1,17.384,27.281H939.463a7.158,7.158,0,0,1-7.147-7.147V238.446a7.138,7.138,0,0,1,.584-2.846Z" transform="translate(-421.964 -112.957)" fill="#4b4bff"/>
        <path id="Path_172" data-name="Path 172" d="M892.864,280.546l-6.057-9.073-4.428-6.633a2.464,2.464,0,0,0-4.4.638l-1.864,5.995-3.753,12.046a2.469,2.469,0,0,0,3.654,2.83l1.332-.824a1.849,1.849,0,0,1,2.812,1.406l1.22,13.315a2.472,2.472,0,0,0,2.453,2.242c.074,0,.149-.006.229-.012l1.87-.167a2.462,2.462,0,0,0,2.229-2.682L886.9,285.879a1.846,1.846,0,0,1,2.614-1.846l.272.124a2.465,2.465,0,0,0,3.078-3.611Z" transform="translate(-403.63 -121.545)" fill="#c7c3c3"/>
      </g>
      <rect id="Rectangle_221" data-name="Rectangle 221" width="73.198" height="75.461" rx="14" transform="translate(1628.127 515.539)" fill="#2ff27d" opacity="0.73"/>
      <g id="Art_Shop" data-name="Art Shop" transform="translate(1275.069 781.475) rotate(180)">
        <path id="Path_178" data-name="Path 178" d="M89.094,5.73A62.882,62.882,0,0,0,24.552,112.737a26.821,26.821,0,0,0,16.384,5.588,27.3,27.3,0,0,0,15.889-5.142A21.46,21.46,0,0,0,65.8,95.731a24.459,24.459,0,0,0-.276-3.5A12.661,12.661,0,0,1,75.7,77.727l8.891-1.62a4.38,4.38,0,0,0-1.568-8.619l-8.891,1.62a21.438,21.438,0,0,0-17.26,24.46,15.33,15.33,0,0,1,.175,2.142,12.521,12.521,0,0,1-5.3,10.323,18.267,18.267,0,0,1-21.845-.258A54.128,54.128,0,0,1,85.428,13.7a4.386,4.386,0,0,0,3.666-7.97Z" fill="#03ff79"/>
        <path id="Path_179" data-name="Path 179" d="M0,13.139A13.139,13.139,0,1,0,13.139,0,13.139,13.139,0,0,0,0,13.139Zm17.518,0a4.38,4.38,0,1,1-4.38-4.38A4.38,4.38,0,0,1,17.518,13.139Z" transform="translate(17.544 56.972)" fill="#03ff79"/>
        <path id="Path_180" data-name="Path 180" d="M26.278,13.139A13.139,13.139,0,1,0,13.139,26.278,13.139,13.139,0,0,0,26.278,13.139Zm-13.139,4.38a4.38,4.38,0,1,1,4.38-4.38,4.38,4.38,0,0,1-4.38,4.38Z" transform="translate(26.304 26.314)" fill="#03ff79"/>
        <path id="Path_181" data-name="Path 181" d="M0,13.139A13.139,13.139,0,1,0,13.139,0,13.139,13.139,0,0,0,0,13.139Zm17.518,0a4.38,4.38,0,1,1-4.38-4.38A4.38,4.38,0,0,1,17.518,13.139Z" transform="translate(56.961 17.555)" fill="#03ff79"/>
        <path id="Path_182" data-name="Path 182" d="M25.249,69.833,21.618,8.05A8.663,8.663,0,0,0,13.073,0H12.2A8.562,8.562,0,0,0,3.661,8.05L.022,69.828a12.635,12.635,0,1,0,25.227,0Zm-9.788,3.4a3.972,3.972,0,0,1-5.65,0,3.876,3.876,0,0,1-1.047-2.891L12.2,8.759l.688-.2L16.516,70.35a3.872,3.872,0,0,1-1.055,2.886Z" transform="translate(96.881 0.037)" fill="#03ff79"/>
        <path id="Path_183" data-name="Path 183" d="M13.139,0A13.139,13.139,0,0,0,0,13.139,36.7,36.7,0,0,0,2.413,25.472,28.2,28.2,0,0,1,4.38,35.037a4.384,4.384,0,0,0,5.764,4.157c.661-.215,16.134-5.615,16.134-26.054A13.139,13.139,0,0,0,13.138,0ZM12.2,27.592c-.438-1.752-.972-3.372-1.476-4.888a28.2,28.2,0,0,1-1.966-9.565,4.38,4.38,0,1,1,8.759,0A19.594,19.594,0,0,1,12.2,27.592Z" transform="translate(96.377 83.249)" fill="#03ff79"/>
      </g>
      <path id="_5283742831536556750" data-name="5283742831536556750" d="M122,70.8h-3.4c-.64-20.946-12.617-38.462-30.473-46.274h22.307v3.4a2.042,2.042,0,1,0,4.083,0V17.042a2.042,2.042,0,1,0-4.083,0v3.4H73.689v-3.4A2.042,2.042,0,0,0,71.648,15H60.76a2.042,2.042,0,0,0-2.042,2.042v3.4H21.971v-3.4a2.042,2.042,0,1,0-4.083,0V27.93a2.042,2.042,0,1,0,4.083,0v-3.4H44.21A52.263,52.263,0,0,0,12.444,72.162h-3.4A2.042,2.042,0,0,0,7,74.2V85.092a2.042,2.042,0,0,0,2.042,2.041H19.93a2.042,2.042,0,0,0,2.042-2.041V74.2a2.042,2.042,0,0,0-2.042-2.042h-3.4a48.411,48.411,0,0,1,42.188-47.44V27.93a2.042,2.042,0,0,0,2.042,2.042h3.511L43.08,83.745a2.042,2.042,0,0,0,0,1.456l7.594,20.674L50.552,119.1a2.042,2.042,0,0,0,2.042,2.055H78.453a2.041,2.041,0,0,0,2.042-2.042v-13.17l9.268-20.619a2.042,2.042,0,0,0,0-1.592L68.137,29.971h3.511a2.042,2.042,0,0,0,2.042-2.042V24.718c23.137,3.171,40,22.184,40.83,46.084h-3.4a2.042,2.042,0,0,0-2.042,2.042V83.731a2.042,2.042,0,0,0,2.042,2.042h10.888a2.042,2.042,0,0,0,2.042-2.042V72.843a2.042,2.042,0,0,0-2.042-2.042ZM17.888,83.05H11.083V76.245h6.805Zm36.747,34.025.082-9.527H76.411v9.527Zm22.5-13.61h-23L47.163,84.52l17-43.13v36.9a2.042,2.042,0,1,0,4.084,0V41.19L85.68,84.411ZM69.606,25.888H62.8V19.083h6.8Zm50.357,55.8h-6.805v-6.8h6.805Z" transform="translate(1732.369 249.128)" fill="#ffad0e"/>
      <g id="_5375478681594722064" data-name="5375478681594722064" transform="translate(1185.633 271.685)">
        <path id="Path_184" data-name="Path 184" d="M75.271,47.524V6H5V47.524" transform="translate(4.582 -6)" fill="none" stroke="#4b4bff" stroke-linecap="round" stroke-linejoin="round" stroke-miterlimit="10" stroke-width="7"/>
        <path id="Path_185" data-name="Path 185" d="M91.436,34.777H2L8.388,22h76.66Z" transform="translate(-2 29.106)" fill="none" stroke="#4b4bff" stroke-linecap="round" stroke-linejoin="round" stroke-miterlimit="10" stroke-width="7"/>
        <path id="Path_186" data-name="Path 186" d="M17.582,11,8,20.582l9.582,9.582" transform="translate(11.165 4.971)" fill="none" stroke="#4b4bff" stroke-linecap="round" stroke-linejoin="round" stroke-miterlimit="10" stroke-width="7"/>
        <path id="Path_187" data-name="Path 187" d="M21,11l9.582,9.582L21,30.165" transform="translate(39.689 4.971)" fill="none" stroke="#4b4bff" stroke-linecap="round" stroke-linejoin="round" stroke-miterlimit="10" stroke-width="7"/>
        <line id="Line_1" data-name="Line 1" x1="12.65" y2="24.668" transform="translate(37.95 13.283)" fill="none" stroke="#4b4bff" stroke-linecap="round" stroke-linejoin="round" stroke-miterlimit="10" stroke-width="7"/>
      </g>
    </g>
    <g id="Group_22-2" data-name="Group 22" transform="translate(-835.048 635.917)">
      <g id="undraw_designer_re_5v95-2" data-name="undraw_designer_re_5v95" transform="translate(1213.741 264.128)">
        <path id="Path_113-2" data-name="Path 113" d="M736.344,223.325a264.477,264.477,0,0,0-17.384-27.281q-6.67-9.188-14.1-17.762h-.012a266.394,266.394,0,0,0-29.139-28.842q-3.2-2.722-6.5-5.332A264.657,264.657,0,0,0,603.99,106l.208,34.272,2.244,390.676H411.929L400.989,141l.815-33.724C306.44,147.388,239.481,241.689,239.481,351.635a265.192,265.192,0,0,0,8.615,67.251,260.632,260.632,0,0,0,8.788,27.38q1.858,4.877,3.92,9.668c.663,1.554,1.338,3.1,2.038,4.632.9,2.007,1.833,4.007,2.793,5.983q1.115,2.332,2.291,4.632,1.514,3.019,3.128,5.989c.83,1.554,1.685,3.1,2.552,4.632a266.058,266.058,0,0,0,52.908,66.174q9,8.166,18.734,15.483a265.023,265.023,0,0,0,318.414,0q5.3-3.976,10.373-8.218,3.372-2.806,6.633-5.716c.576-.514,1.152-1.028,1.722-1.548a266.082,266.082,0,0,0,49.582-60.451A260.032,260.032,0,0,0,745.4,462.034q1.589-3.456,3.078-6.973A261.342,261.342,0,0,0,759.983,422q.715-2.61,1.381-5.239v-.006c.074-.3.155-.613.229-.917q.687-2.769,1.319-5.561v-.006q2.044-8.983,3.45-18.183.177-1.18.347-2.36c.043-.285.087-.57.118-.855v-.006q1-7.107,1.629-14.319.966-11.324.972-22.908a263.757,263.757,0,0,0-33.084-128.31Z" transform="translate(-210.497 -73.397)" fill="#c7ffe1"/>
        <path id="Path_114-2" data-name="Path 114" d="M883.772,657.073c15.683-21.191,21.715-51.041,9.515-74.412a121.467,121.467,0,0,1-57.509,60.4c-9.928,4.867-21.477,9.247-26.072,19.3-2.859,6.258-2.315,13.646-.016,20.131s6.208,12.254,10.077,17.944l.2,1.705C844.324,692.042,868.089,678.264,883.772,657.073Z" transform="translate(-383.947 -218.885)" fill="#ffd991"/>
        <path id="Path_115-2" data-name="Path 115" d="M898.271,582.663a103.822,103.822,0,0,1-21.6,60.116,44.713,44.713,0,0,1-10.021,9.788,25.641,25.641,0,0,1-12.82,4.216c-4.26.3-8.652.124-12.764,1.46A15.7,15.7,0,0,0,831.674,667c-2.276,5.024-2.611,10.567-2.751,16-.155,6.031-.22,12.3-3.065,17.779-.345.664.706,1.16,1.05.5,4.949-9.538,1.736-20.692,4.685-30.719,1.376-4.679,4.171-8.971,8.842-10.846,4.084-1.64,8.614-1.457,12.93-1.728a27.365,27.365,0,0,0,12.689-3.656,41.329,41.329,0,0,0,10.361-9.367,100.724,100.724,0,0,0,15.779-27.242,105.662,105.662,0,0,0,7.235-35.153c.024-.746-1.134-.64-1.158.1Z" transform="translate(-389.45 -218.7)" fill="#fff"/>
        <path id="Path_116-2" data-name="Path 116" d="M905.546,659.79a15.577,15.577,0,0,0,19.839-3.642c.471-.581-.409-1.34-.881-.758a14.424,14.424,0,0,1-18.461,3.35C905.4,658.364,904.9,659.416,905.546,659.79Z" transform="translate(-413.702 -241.02)" fill="#fff"/>
        <path id="Path_117-2" data-name="Path 117" d="M868.3,679.88a30.023,30.023,0,0,1,2.213-21.767c.342-.665-.708-1.162-1.05-.5a31.23,31.23,0,0,0-2.257,22.656c.2.721,1.3.326,1.094-.391Z" transform="translate(-401.735 -241.667)" fill="#fff"/>
        <path id="Path_118-2" data-name="Path 118" d="M922.459,614.476a8.817,8.817,0,0,1-5.759-6.069c-.194-.723-1.287-.327-1.094.391a9.88,9.88,0,0,0,6.356,6.728.6.6,0,0,0,.774-.277.584.584,0,0,0-.277-.774Z" transform="translate(-416.857 -226.627)" fill="#fff"/>
        <path id="Path_119-2" data-name="Path 119" d="M796.753,555.891c.108.455.216.91.318,1.373a116.123,116.123,0,0,1,2.76,18.633c.04.485.073.976.1,1.461a122.417,122.417,0,0,1-5.84,44.689,118.867,118.867,0,0,1-6.9,16.692c-3.757,7.431-8.423,15.189-9.475,23.192a20.42,20.42,0,0,0-.2,2.516l31.13,29.638c.1.032.2.071.308.1l1.189,1.24c.16-.268.32-.549.479-.817.093-.155.18-.316.273-.471.06-.1.12-.211.18-.3a1.1,1.1,0,0,0,.053-.1c.06-.092.106-.183.16-.268q1.347-2.353,2.665-4.734c.007-.007.007-.007.007-.021,6.667-12.108,12.381-24.88,15.975-38.112.108-.4.223-.8.317-1.215a113.453,113.453,0,0,0,3.278-18.219,100.283,100.283,0,0,0,.431-10.138,83.387,83.387,0,0,0-4.335-25.711c-5.553-16.525-16.329-31.09-31.689-38.85C797.538,556.275,797.152,556.083,796.753,555.891Z" transform="translate(-374.715 -210.715)" fill="#f09d00"/>
        <path id="Path_120-2" data-name="Path 120" d="M803.5,556.117a103.823,103.823,0,0,1,18.949,61,44.711,44.711,0,0,1-2.108,13.849,25.643,25.643,0,0,1-7.7,11.085c-3.217,2.808-6.833,5.308-9.312,8.85a15.7,15.7,0,0,0-2.23,12.646c1.208,5.382,4.277,10.009,7.436,14.43,3.507,4.908,7.228,9.951,8.257,16.041.125.738,1.262.5,1.138-.236-1.791-10.6-11.072-17.566-14.754-27.348-1.718-4.564-2.071-9.674.53-13.983,2.274-3.768,6-6.349,9.283-9.165a27.363,27.363,0,0,0,7.931-10.558,41.333,41.333,0,0,0,2.633-13.717,100.728,100.728,0,0,0-3.8-31.251,105.661,105.661,0,0,0-15.388-32.423c-.43-.609-1.291.172-.864.778Z" transform="translate(-381.77 -210.479)" fill="#fff"/>
        <path id="Path_121-2" data-name="Path 121" d="M832.447,627.463a15.577,15.577,0,0,0,13.647-14.852.582.582,0,0,0-1.16-.075,14.424,14.424,0,0,1-12.723,13.789C831.469,626.414,831.711,627.551,832.447,627.463Z" transform="translate(-391.272 -227.844)" fill="#fff"/>
        <path id="Path_122-2" data-name="Path 122" d="M815.057,670.086a30.022,30.022,0,0,1-11.339-18.712c-.127-.737-1.265-.5-1.138.236a31.228,31.228,0,0,0,11.839,19.448c.6.454,1.231-.52.638-.971Z" transform="translate(-382.363 -239.721)" fill="#fff"/>
        <path id="Path_123-2" data-name="Path 123" d="M817.757,586.136a8.817,8.817,0,0,1-8.252-1.378c-.59-.461-1.224.513-.638.971a9.88,9.88,0,0,0,9.126,1.545.6.6,0,0,0,.451-.687A.584.584,0,0,0,817.757,586.136Z" transform="translate(-384.214 -219.489)" fill="#fff"/>
        <path id="Path_124-2" data-name="Path 124" d="M210.134,486.014c-13.909-22.4-17.5-52.637-3.437-74.939a121.468,121.468,0,0,0,52.411,64.869c9.5,5.658,20.654,10.962,24.417,21.359,2.341,6.469,1.2,13.789-1.62,20.065s-7.184,11.709-11.5,17.065l-.342,1.683C246.61,524.074,224.043,508.409,210.134,486.014Z" transform="translate(-197.764 -166.514)" fill="#55f796"/>
        <path id="Path_125-2" data-name="Path 125" d="M210.787,411.113a103.823,103.823,0,0,0,16.641,61.672,44.714,44.714,0,0,0,9.193,10.57,25.643,25.643,0,0,0,12.435,5.244c4.221.65,8.613.827,12.6,2.492a15.7,15.7,0,0,1,8.651,9.489c1.86,5.193,1.744,10.744,1.442,16.169-.336,6.023-.78,12.274,1.61,17.97.29.69-.8,1.1-1.087.41-4.158-9.909-.048-20.764-2.173-31-.991-4.775-3.428-9.28-7.931-11.529-3.938-1.966-8.467-2.152-12.747-2.774a27.363,27.363,0,0,1-12.35-4.675,41.333,41.333,0,0,1-9.565-10.178A100.728,100.728,0,0,1,214,446.543a105.665,105.665,0,0,1-4.354-35.625c.037-.745,1.182-.545,1.146.2Z" transform="translate(-201.35 -166.323)" fill="#fff"/>
        <path id="Path_126-2" data-name="Path 126" d="M220.685,489.3a15.577,15.577,0,0,1-19.477-5.242c-.422-.617.517-1.3.939-.684a14.424,14.424,0,0,0,18.128,4.839C220.95,487.89,221.356,488.98,220.685,489.3Z" transform="translate(-198.782 -188.508)" fill="#fff"/>
        <path id="Path_127-2" data-name="Path 127" d="M263.071,512.917a30.023,30.023,0,0,0-.436-21.875c-.287-.691.8-1.1,1.087-.41a31.228,31.228,0,0,1,.408,22.764C263.869,514.1,262.812,513.616,263.071,512.917Z" transform="translate(-217.549 -190.687)" fill="#fff"/>
        <path id="Path_128-2" data-name="Path 128" d="M213,443.445a8.817,8.817,0,0,0,6.233-5.581c.252-.7,1.309-.222,1.059.479a9.88,9.88,0,0,1-6.882,6.189.6.6,0,0,1-.749-.339.584.584,0,0,1,.339-.748Z" transform="translate(-202.301 -174.585)" fill="#fff"/>
        <path id="Path_129-2" data-name="Path 129" d="M319.245,394.606c-.145.445-.29.89-.429,1.342a116.129,116.129,0,0,0-4.265,18.347c-.079.48-.152.967-.217,1.448a122.412,122.412,0,0,0,2.188,45.016,118.878,118.878,0,0,0,5.522,17.2c3.141,7.712,7.16,15.824,7.558,23.885a20.389,20.389,0,0,1,0,2.524l-33.436,27.01c-.107.023-.208.054-.315.078l-1.286,1.139c-.137-.28-.274-.573-.411-.853-.08-.162-.153-.33-.234-.492-.051-.11-.1-.22-.155-.316-.017-.036-.034-.073-.045-.1-.052-.1-.091-.191-.137-.28q-1.151-2.455-2.272-4.935c-.006-.008-.006-.008,0-.021-5.661-12.61-10.318-25.8-12.825-39.285-.075-.406-.157-.819-.217-1.237a113.439,113.439,0,0,1-1.786-18.425,100.289,100.289,0,0,1,.395-10.139,83.391,83.391,0,0,1,6.41-25.273c6.877-16.019,18.8-29.661,34.742-36.146C318.43,394.924,318.831,394.764,319.245,394.606Z" transform="translate(-221.786 -161.487)" fill="#0bac4b"/>
        <path id="Path_130-2" data-name="Path 130" d="M327.179,394.849a103.822,103.822,0,0,0-23.844,59.261,44.709,44.709,0,0,0,.976,13.974,25.644,25.644,0,0,0,6.771,11.674c2.978,3.061,6.379,5.846,8.562,9.577a15.7,15.7,0,0,1,1.2,12.785c-1.641,5.266-5.076,9.629-8.584,13.778-3.895,4.607-8.013,9.331-9.534,15.317-.184.725-1.3.4-1.115-.327,2.646-10.415,12.463-16.608,16.928-26.058,2.083-4.41,2.85-9.474.609-13.98-1.96-3.941-5.465-6.816-8.508-9.889a27.363,27.363,0,0,1-7.046-11.168,41.333,41.333,0,0,1-1.51-13.885,100.724,100.724,0,0,1,6.33-30.839A105.664,105.664,0,0,1,326.381,394c.478-.573,1.272.276.8.845Z" transform="translate(-229.452 -161.245)" fill="#fff"/>
        <path id="Path_131-2" data-name="Path 131" d="M298.763,463.235a15.577,15.577,0,0,1-12.4-15.912.581.581,0,0,1,1.162.019,14.424,14.424,0,0,0,11.561,14.778C299.823,462.269,299.492,463.383,298.763,463.235Z" transform="translate(-224.803 -177.409)" fill="#fff"/>
        <path id="Path_132-2" data-name="Path 132" d="M312.665,507.6a30.023,30.023,0,0,0,12.822-17.729c.187-.725,1.3-.4,1.115.327a31.229,31.229,0,0,1-13.38,18.422c-.631.4-1.185-.618-.557-1.02Z" transform="translate(-232.75 -190.44)" fill="#fff"/>
        <path id="Path_133-2" data-name="Path 133" d="M318.7,423.711a8.817,8.817,0,0,0,8.337-.7c.626-.411,1.179.611.557,1.02a9.88,9.88,0,0,1-9.221.8.6.6,0,0,1-.394-.721.584.584,0,0,1,.721-.394Z" transform="translate(-234.449 -170.127)" fill="#fff"/>
        <circle id="Ellipse_16-2" data-name="Ellipse 16" cx="36.813" cy="36.813" r="36.813" transform="translate(233.761 17.264)" fill="#ffd991"/>
        <path id="Path_134-2" data-name="Path 134" d="M696.78,121.948a135.276,135.276,0,0,0-10.491-9.959,80.241,80.241,0,0,0-23.961-14.511,55.258,55.258,0,0,0-10.28-2.707c-.421-.068-.836-.136-1.257-.192a.467.467,0,0,0-.093,0,1.116,1.116,0,0,0-.2-.037c-.861-.111-1.722-.2-2.589-.26a44.86,44.86,0,0,0-13.9,1.251,46.218,46.218,0,0,0-7.68,2.675,68.735,68.735,0,0,0-7.2,4.081,43.284,43.284,0,0,1-3.84,2.075,47.893,47.893,0,0,1-12.077,3.865,54.225,54.225,0,0,1-8.547.842,20.689,20.689,0,0,0-7.2,1.034,17.245,17.245,0,0,0-10.51,11.383,1.109,1.109,0,0,0,.5,1.22c.638.458,1.257.979,1.932,1.387a6.063,6.063,0,0,0,1.883.514q1.6.334,3.2.65,5.9,1.17,11.847,2.075,11.965,1.812,24.067,2.552a1.2,1.2,0,0,0,.149.012,270.855,270.855,0,0,0,27.374.266c1.381-.056,2.756-.124,4.137-.2q8.63-.483,17.217-1.524,7.943-.966,15.823-2.4,5.63-1.022,11.216-2.279a1.1,1.1,0,0,0,.477-1.814Z" transform="translate(-313.492 -69.792)" fill="#c7c7ff" opacity="0.65"/>
        <path id="Path_135-2" data-name="Path 135" d="M586.65,192.6a120.244,120.244,0,0,0-17.533-15.433c-2.1-1.474-4.261-2.861-6.484-4.131a68.722,68.722,0,0,0-8.472-4.143c-.65-.266-1.307-.52-1.963-.762a54.881,54.881,0,0,0-11.538-2.9c-.031-.006-.062,0-.093-.006l-.192-.037a42.622,42.622,0,0,0-5.76-.353c-1.381,0-2.768.074-4.143.211a45.828,45.828,0,0,0-6.59,1.14c-1.071.266-2.137.576-3.183.929a45.462,45.462,0,0,0-4.49,1.746l-.068.031a66.9,66.9,0,0,0-7.135,4.05c-.05.031-.105.062-.155.093a45,45,0,0,1-8.224,3.852,50.1,50.1,0,0,1-7.543,1.994,53.419,53.419,0,0,1-8.547.836,20.494,20.494,0,0,0-7.19,1.04,17.255,17.255,0,0,0-10.516,11.383,1.117,1.117,0,0,0,.5,1.22c.638.458,1.263.972,1.932,1.381a5.941,5.941,0,0,0,1.883.514c1.065.223,2.13.446,3.2.656q5.9,1.171,11.854,2.069,8.166,1.236,16.4,1.976,3.9.362,7.81.6,10.024.6,20.066.471,2.072-.028,4.143-.093,12.3-.362,24.525-1.846a269.739,269.739,0,0,0,27.033-4.676,1.092,1.092,0,0,0,.477-1.808Z" transform="translate(-279.879 -91.356)" fill="#c7c7ff" opacity="0.56"/>
        <path id="Path_136-2" data-name="Path 136" d="M492.985,62.376l32.432,448.171L460.553,516.3V68.078C468.282,62.04,479.377,61.1,492.985,62.376Z" transform="translate(-277.972 -59.932)" fill="#9e9eff" opacity="0.67"/>
        <path id="Path_137-2" data-name="Path 137" d="M723.4,62.376,690.968,510.548l64.863,5.757V68.078C748.1,62.04,737.007,61.1,723.4,62.376Z" transform="translate(-348.3 -59.932)" fill="#9e9eff"/>
        <path id="Path_138-2" data-name="Path 138" d="M685.513,67.418c-2.013-4.935-6.292-8.342-11.241-8.342H468.06c-6.88,0-12.473,6.6-12.473,14.724V519.247a15.917,15.917,0,0,0,4.3,11.113,11.818,11.818,0,0,0,5.4,3.239,10.307,10.307,0,0,0,2.775.373H674.273a10.315,10.315,0,0,0,2.775-.373c5.549-1.492,9.7-7.355,9.7-14.351V73.8a16.912,16.912,0,0,0-1.233-6.382Zm-2.9,451.828c0,5.425-3.741,9.84-8.336,9.84H468.06c-3.809,0-7.035-3.034-8.02-7.165a11.428,11.428,0,0,1-.316-2.676V73.8c0-5.425,3.741-9.833,8.336-9.833H674.273a7.073,7.073,0,0,1,2.477.446c3.388,1.243,5.859,4.979,5.859,9.387Z" transform="translate(-276.456 -59.077)" fill="#6969ff"/>
        <path id="Path_174-2" data-name="Path 174" d="M0,0H227.021V4.14H0Z" transform="translate(181.2 135.4)" fill="#6969ff"/>
        <path id="Path_175-2" data-name="Path 175" d="M0,0H227.021V4.14H0Z" transform="translate(181.2 49.935)" fill="#6969ff"/>
        <path id="Path_176-2" data-name="Path 176" d="M0,0H227.021V4.14H0Z" transform="translate(181.2 204.403)" fill="#6969ff"/>
        <path id="Path_177-2" data-name="Path 177" d="M0,0H4.14V261.2H0Z" transform="translate(250.731 1.858)" fill="#6969ff"/>
        <rect id="Rectangle_217-2" data-name="Rectangle 217" width="4.14" height="261.198" transform="translate(334.551 1.858)" fill="#6969ff"/>
        <path id="Path_139-2" data-name="Path 139" d="M694.942,705.353H423.069a18.651,18.651,0,0,0-18.629,18.629,18.442,18.442,0,0,0,1.344,6.93,18.63,18.63,0,0,0,17.285,11.7H694.942a18.63,18.63,0,0,0,16.077-9.228,18.02,18.02,0,0,0,1.214-2.477,18.44,18.44,0,0,0,1.344-6.93,18.656,18.656,0,0,0-18.635-18.624Z" transform="translate(-260.846 -256.334)" fill="#f09d00"/>
        <rect id="Rectangle_218-2" data-name="Rectangle 218" width="225.641" height="13.801" transform="translate(182.58 253.396)" fill="#6969ff"/>
        <path id="Path_140-2" data-name="Path 140" d="M418.858,358.755H423a7.59,7.59,0,0,1,7.59,7.59H411.268A7.59,7.59,0,0,1,418.858,358.755Z" transform="translate(-125.528 -109.499)" fill="#ccc"/>
        <circle id="ab6171fa-7d69-4734-b81c-8dff60f9761b-2" data-name="ab6171fa-7d69-4734-b81c-8dff60f9761b" cx="42.762" cy="42.762" r="42.762" transform="translate(256.619 206.792)" fill="#ffb8b8"/>
        <path id="bf427902-b9bf-4946-b5d7-5c1c7e04535e-2" data-name="bf427902-b9bf-4946-b5d7-5c1c7e04535e" d="M557.49,347.291c.323-4.911,3.571-9.936,13.888-12.562,0,0,17.707-22.643,41.769-10.769,0,0,11.665-2.007,20.315,10.1,0,0,8.576-5.058,12.194,3.907,0,0,10.058,18.287,6.355,36.939s-5.6,20.98-5.6,20.98,4.72-38.582-22.466-35.907-49.073-6.885-55.229,14.047c-5.112,17.381-4.468,26.408-4.468,26.408s-17.1-17.339-11.283-30.992C555.94,362.456,556.992,354.864,557.49,347.291Z" transform="translate(-305.811 -138.874)" fill="#2f2e41"/>
        <path id="Path_141-2" data-name="Path 141" d="M461.292,678.219H697.821c-1.581-18.042-2.614-87.011-2.614-91.55,0-20.021-16.382-41.869-16.382-41.869l-5.864-3.241-48.97-15.278-12.673-16.462a14.092,14.092,0,0,0-11.286-5.511l-40.032.3a14.135,14.135,0,0,0-9.494,3.762l-24.789,23-36.359,17.36-.062-.062-.38.283-5.4,3.886-3.471,2.508s-9.105,10.924-16.382,43.688C462.573,603.961,461.8,667.754,461.292,678.219Z" transform="translate(-278.198 -194.971)" fill="#3232cf"/>
        <path id="Path_142-2" data-name="Path 142" d="M724.189,742.14c-.57.52-1.146,1.034-1.722,1.548q-3.27,2.908-6.633,5.716-5.081,4.236-10.373,8.218H387.047q-9.726-7.3-18.734-15.483Z" transform="translate(-249.819 -267.562)" fill="#ffc454"/>
        <path id="Path_143-2" data-name="Path 143" d="M463.353,683.243H346.3l2.477-11.767h112.1Z" transform="translate(-105.699 -204.948)" fill="#2f2e41"/>
        <path id="Path_144-2" data-name="Path 144" d="M846.249,674.4H815.791a4.7,4.7,0,0,0-3.611,1.672,6.829,6.829,0,0,0-1.288-.124,7.224,7.224,0,1,0,0,14.449,7.143,7.143,0,0,0,3.145-.73l.51,6.242,2.019,24.674a4.5,4.5,0,0,0,.384.886,4.748,4.748,0,0,0,4.168,2.477h19.8a4.765,4.765,0,0,0,4.174-2.477,4.9,4.9,0,0,0,.378-.886l5.326-40.02a4.763,4.763,0,0,0-4.552-6.162Zm-35.357,13.93a5.162,5.162,0,0,1,0-10.324c.093,0,.18.025.272.031a4.729,4.729,0,0,0,.074,2.521l2.18,7.085a5.076,5.076,0,0,1-2.527.687Z" transform="translate(-382.698 -246.885)" fill="#3f3d56"/>
        <path id="Path_145-2" data-name="Path 145" d="M678.495,485.931H485.69a6.259,6.259,0,0,0-6.249,6.249v130.1a6.255,6.255,0,0,0,6.249,6.249h192.8a6.255,6.255,0,0,0,6.249-6.249V492.18a6.259,6.259,0,0,0-6.244-6.249Z" transform="translate(-283.737 -189.362)" fill="#3f3d56"/>
        <path id="Path_146-2" data-name="Path 146" d="M637.569,635.977h-45.1a2.407,2.407,0,0,0-2.4,2.409v71.252h49.917V638.386a2.408,2.408,0,0,0-2.41-2.409Zm-22.4,40.484a5.351,5.351,0,0,1-5.326-5.326v-8.218a5.326,5.326,0,0,1,10.652,0v8.218A5.351,5.351,0,0,1,615.169,676.461Z" transform="translate(-317.501 -235.159)" fill="#2f2e41"/>
        <path id="Path_147-2" data-name="Path 147" d="M589.839,738.717v6.874a1.346,1.346,0,0,0,1.344,1.344h47.539a1.351,1.351,0,0,0,1.344-1.344v-6.874Z" transform="translate(-317.433 -266.517)" fill="#3f3d56"/>
        <circle id="Ellipse_17-2" data-name="Ellipse 17" cx="3.044" cy="3.044" r="3.044" transform="translate(387.613 425.476)" fill="#2f2e41"/>
        <path id="Path_148-2" data-name="Path 148" d="M523,669.493a1.065,1.065,0,0,0-1.065,1.065v5.481a1.065,1.065,0,0,0,2.13,0v-5.481A1.065,1.065,0,0,0,523,669.493Z" transform="translate(-296.707 -245.388)" fill="#2f2e41"/>
        <path id="Path_149-2" data-name="Path 149" d="M531.324,669.493a1.065,1.065,0,0,0-1.065,1.065v5.481a1.065,1.065,0,0,0,2.13,0v-5.481a1.065,1.065,0,0,0-1.065-1.065Z" transform="translate(-299.248 -245.388)" fill="#2f2e41"/>
        <path id="Path_150-2" data-name="Path 150" d="M539.649,669.493a1.065,1.065,0,0,0-1.065,1.065v5.481a1.065,1.065,0,0,0,2.13,0v-5.481A1.065,1.065,0,0,0,539.649,669.493Z" transform="translate(-301.789 -245.388)" fill="#2f2e41"/>
        <path id="Path_151-2" data-name="Path 151" d="M547.975,669.493a1.065,1.065,0,0,0-1.065,1.065v5.481a1.065,1.065,0,0,0,2.13,0v-5.481A1.065,1.065,0,0,0,547.975,669.493Z" transform="translate(-304.33 -245.388)" fill="#2f2e41"/>
        <circle id="Ellipse_18-2" data-name="Ellipse 18" cx="16.102" cy="16.102" r="16.102" transform="translate(232.158 442.993)" fill="#ffb8b8"/>
        <circle id="Ellipse_19-2" data-name="Ellipse 19" cx="16.102" cy="16.102" r="16.102" transform="translate(344.649 446.09)" fill="#ffb8b8"/>
        <path id="Ellipse_20-2" data-name="Ellipse 20" d="M21.256,0A21.256,21.256,0,1,1,0,21.256,21.256,21.256,0,0,1,21.256,0Z" transform="translate(100.02 225.215)" fill="#02e06b" opacity="0.74"/>
        <circle id="Ellipse_21-2" data-name="Ellipse 21" cx="21.256" cy="21.256" r="21.256" transform="translate(121.276 225.215)" fill="#3232cf" opacity="0.74"/>
        <circle id="Ellipse_22-2" data-name="Ellipse 22" cx="21.256" cy="21.256" r="21.256" transform="translate(110.828 208.274)" fill="#f09d00" opacity="0.74"/>
        <rect id="Rectangle_219-2" data-name="Rectangle 219" width="57.23" height="1.239" transform="translate(133.068 240.592) rotate(-17.441)" fill="#3f3d56"/>
        <circle id="Ellipse_23-2" data-name="Ellipse 23" cx="2.477" cy="2.477" r="2.477" transform="translate(185.538 221.354)" fill="#3f3d56"/>
        <path id="Path_158-2" data-name="Path 158" d="M405.558,282.882v1.257a6.521,6.521,0,0,0-1.263-.124h-6.478v13.91a7.771,7.771,0,0,1-7.766,7.766h-9.575v2.143a6.492,6.492,0,0,0,.5,2.5h-1.325a7.627,7.627,0,0,1-.415-2.5v-2.143h-5.264v-1.239h5.264v-13.91A7.771,7.771,0,0,1,387,282.777h9.575v-2.168h1.239v2.168h6.478a7.731,7.731,0,0,1,1.266.105Z" transform="translate(-251.546 -126.693)" fill="#6c63ff"/>
        <path id="Path_159-2" data-name="Path 159" d="M386.105,269.467H368.814a7.771,7.771,0,0,0-7.766,7.766v17.291a7.771,7.771,0,0,0,7.766,7.766H386.1a7.771,7.771,0,0,0,7.766-7.766V277.208a7.769,7.769,0,0,0-7.766-7.741Zm6.528,25.057a6.536,6.536,0,0,1-6.528,6.528H368.814a6.536,6.536,0,0,1-6.527-6.528V277.233a6.536,6.536,0,0,1,6.528-6.528h17.291a6.535,6.535,0,0,1,6.528,6.5Z" transform="translate(-247.601 -123.292)" fill="#3f3d56"/>
        <path id="Path_160-2" data-name="Path 160" d="M381.55,305.406v1.239h1.239v-1.239Zm0,0v1.239h1.239v-1.239Zm26.32-21.571a7.742,7.742,0,0,0-1.263-.105H389.316a7.771,7.771,0,0,0-7.766,7.766v17.291a7.631,7.631,0,0,0,.415,2.5,7.769,7.769,0,0,0,7.351,5.264h17.291a7.771,7.771,0,0,0,7.766-7.766V291.5a7.767,7.767,0,0,0-6.5-7.665Zm5.264,24.952a6.536,6.536,0,0,1-6.528,6.528h-17.29a6.537,6.537,0,0,1-6.528-6.528V291.5a6.536,6.536,0,0,1,6.528-6.528h17.291a6.53,6.53,0,0,1,6.528,6.528Zm-31.585-3.381v1.239h1.239v-1.239Z" transform="translate(-253.859 -127.645)" fill="#3f3d56"/>
        <path id="Path_161-2" data-name="Path 161" d="M330.829,547.3H257.378a1.933,1.933,0,0,0-1.932,1.926v4.354a260.662,260.662,0,0,0,8.788,27.38h66.595a1.924,1.924,0,0,0,1.926-1.926V549.228a1.928,1.928,0,0,0-1.926-1.926Z" transform="translate(-215.37 -208.093)" fill="#3232cf"/>
        <path id="Path_162-2" data-name="Path 162" d="M329.413,609.663H273.737c.663,1.554,1.338,3.1,2.038,4.632h53.639C332.435,614.339,332.4,609.62,329.413,609.663Z" transform="translate(-220.952 -227.127)" fill="#3232cf"/>
        <path id="Path_163-2" data-name="Path 163" d="M331.535,624.941H280.69q1.115,2.332,2.291,4.633h48.554C334.558,629.617,334.527,624.9,331.535,624.941Z" transform="translate(-223.075 -231.79)" fill="#3232cf"/>
        <path id="Path_164-2" data-name="Path 164" d="M333.916,640.229H288.489q1.245,2.332,2.552,4.632h42.875C336.938,644.9,336.908,640.185,333.916,640.229Z" transform="translate(-225.455 -236.456)" fill="#3232cf"/>
        <path id="Path_165-2" data-name="Path 165" d="M899.6,229.333h-.353a7.09,7.09,0,0,1,3.164.748H900.8a6.535,6.535,0,0,0-6.527,6.527V253.9a6.535,6.535,0,0,0,6.527,6.527h1.024a7.1,7.1,0,0,1-2.582.49h.353a7.155,7.155,0,0,0,7.147-7.147V236.48a7.155,7.155,0,0,0-7.146-7.147Z" transform="translate(-410.355 -111.042)" fill="#3f3d56"/>
        <path id="Path_166-2" data-name="Path 166" d="M899.6,229.333h-.353a7.09,7.09,0,0,1,3.164.748H900.8a6.535,6.535,0,0,0-6.527,6.527V253.9a6.535,6.535,0,0,0,6.527,6.527h1.024a7.1,7.1,0,0,1-2.582.49h.353a7.155,7.155,0,0,0,7.147-7.147V236.48a7.155,7.155,0,0,0-7.146-7.147Z" transform="translate(-410.355 -111.042)" fill="#eb722d" opacity="0.66"/>
        <path id="Path_167-2" data-name="Path 167" d="M833.639,229.333h-.353a7.09,7.09,0,0,1,3.164.748h-1.606a6.535,6.535,0,0,0-6.527,6.527V253.9a6.535,6.535,0,0,0,6.527,6.527h1.024a7.1,7.1,0,0,1-2.582.49h.353a7.155,7.155,0,0,0,7.146-7.147V236.48a7.155,7.155,0,0,0-7.146-7.147Z" transform="translate(-390.221 -111.042)" fill="#6c63ff"/>
        <path id="Path_168-2" data-name="Path 168" d="M833.639,229.333h-.353a7.09,7.09,0,0,1,3.164.748h-1.606a6.535,6.535,0,0,0-6.527,6.527V253.9a6.535,6.535,0,0,0,6.527,6.527h1.024a7.1,7.1,0,0,1-2.582.49h.353a7.155,7.155,0,0,0,7.146-7.147V236.48a7.155,7.155,0,0,0-7.146-7.147Z" transform="translate(-390.221 -111.042)" fill="#0bac4b"/>
        <path id="Path_169-2" data-name="Path 169" d="M826.392,260.5a6.535,6.535,0,0,1-6.527-6.527V236.686a6.535,6.535,0,0,1,6.527-6.527H828a7.092,7.092,0,0,0-3.164-.748H807.542a7.155,7.155,0,0,0-7.147,7.147V253.85a7.155,7.155,0,0,0,7.146,7.15h17.292a7.1,7.1,0,0,0,2.582-.49Z" transform="translate(-381.699 -111.066)" fill="#03ff79"/>
        <path id="Path_170-2" data-name="Path 170" d="M892.354,260.5a6.535,6.535,0,0,1-6.527-6.527V236.686a6.535,6.535,0,0,1,6.527-6.527h1.606a7.092,7.092,0,0,0-3.164-.748H873.5a7.155,7.155,0,0,0-7.147,7.147V253.85A7.155,7.155,0,0,0,873.5,261h17.3a7.1,7.1,0,0,0,2.582-.49Z" transform="translate(-401.832 -111.066)" fill="#f09d00"/>
        <path id="Path_171-2" data-name="Path 171" d="M932.9,235.6a264.486,264.486,0,0,1,17.384,27.281H939.463a7.158,7.158,0,0,1-7.147-7.147V238.446a7.138,7.138,0,0,1,.584-2.846Z" transform="translate(-421.964 -112.957)" fill="#4b4bff"/>
        <path id="Path_172-2" data-name="Path 172" d="M892.864,280.546l-6.057-9.073-4.428-6.633a2.464,2.464,0,0,0-4.4.638l-1.864,5.995-3.753,12.046a2.469,2.469,0,0,0,3.654,2.83l1.332-.824a1.849,1.849,0,0,1,2.812,1.406l1.22,13.315a2.472,2.472,0,0,0,2.453,2.242c.074,0,.149-.006.229-.012l1.87-.167a2.462,2.462,0,0,0,2.229-2.682L886.9,285.879a1.846,1.846,0,0,1,2.614-1.846l.272.124a2.465,2.465,0,0,0,3.078-3.611Z" transform="translate(-403.63 -121.545)" fill="#c7c3c3"/>
      </g>
      <rect id="Rectangle_221-2" data-name="Rectangle 221" width="73.198" height="75.461" rx="14" transform="translate(1628.127 515.539)" fill="#2ff27d" opacity="0.73"/>
      <g id="Art_Shop-2" data-name="Art Shop" transform="translate(1275.069 781.475) rotate(180)">
        <path id="Path_178-2" data-name="Path 178" d="M89.094,5.73A62.882,62.882,0,0,0,24.552,112.737a26.821,26.821,0,0,0,16.384,5.588,27.3,27.3,0,0,0,15.889-5.142A21.46,21.46,0,0,0,65.8,95.731a24.459,24.459,0,0,0-.276-3.5A12.661,12.661,0,0,1,75.7,77.727l8.891-1.62a4.38,4.38,0,0,0-1.568-8.619l-8.891,1.62a21.438,21.438,0,0,0-17.26,24.46,15.33,15.33,0,0,1,.175,2.142,12.521,12.521,0,0,1-5.3,10.323,18.267,18.267,0,0,1-21.845-.258A54.128,54.128,0,0,1,85.428,13.7a4.386,4.386,0,0,0,3.666-7.97Z" fill="#03ff79"/>
        <path id="Path_179-2" data-name="Path 179" d="M0,13.139A13.139,13.139,0,1,0,13.139,0,13.139,13.139,0,0,0,0,13.139Zm17.518,0a4.38,4.38,0,1,1-4.38-4.38A4.38,4.38,0,0,1,17.518,13.139Z" transform="translate(17.544 56.972)" fill="#03ff79"/>
        <path id="Path_180-2" data-name="Path 180" d="M26.278,13.139A13.139,13.139,0,1,0,13.139,26.278,13.139,13.139,0,0,0,26.278,13.139Zm-13.139,4.38a4.38,4.38,0,1,1,4.38-4.38,4.38,4.38,0,0,1-4.38,4.38Z" transform="translate(26.304 26.314)" fill="#03ff79"/>
        <path id="Path_181-2" data-name="Path 181" d="M0,13.139A13.139,13.139,0,1,0,13.139,0,13.139,13.139,0,0,0,0,13.139Zm17.518,0a4.38,4.38,0,1,1-4.38-4.38A4.38,4.38,0,0,1,17.518,13.139Z" transform="translate(56.961 17.555)" fill="#03ff79"/>
        <path id="Path_182-2" data-name="Path 182" d="M25.249,69.833,21.618,8.05A8.663,8.663,0,0,0,13.073,0H12.2A8.562,8.562,0,0,0,3.661,8.05L.022,69.828a12.635,12.635,0,1,0,25.227,0Zm-9.788,3.4a3.972,3.972,0,0,1-5.65,0,3.876,3.876,0,0,1-1.047-2.891L12.2,8.759l.688-.2L16.516,70.35a3.872,3.872,0,0,1-1.055,2.886Z" transform="translate(96.881 0.037)" fill="#03ff79"/>
        <path id="Path_183-2" data-name="Path 183" d="M13.139,0A13.139,13.139,0,0,0,0,13.139,36.7,36.7,0,0,0,2.413,25.472,28.2,28.2,0,0,1,4.38,35.037a4.384,4.384,0,0,0,5.764,4.157c.661-.215,16.134-5.615,16.134-26.054A13.139,13.139,0,0,0,13.138,0ZM12.2,27.592c-.438-1.752-.972-3.372-1.476-4.888a28.2,28.2,0,0,1-1.966-9.565,4.38,4.38,0,1,1,8.759,0A19.594,19.594,0,0,1,12.2,27.592Z" transform="translate(96.377 83.249)" fill="#03ff79"/>
      </g>
      <path id="_5283742831536556750-2" data-name="5283742831536556750" d="M122,70.8h-3.4c-.64-20.946-12.617-38.462-30.473-46.274h22.307v3.4a2.042,2.042,0,1,0,4.083,0V17.042a2.042,2.042,0,1,0-4.083,0v3.4H73.689v-3.4A2.042,2.042,0,0,0,71.648,15H60.76a2.042,2.042,0,0,0-2.042,2.042v3.4H21.971v-3.4a2.042,2.042,0,1,0-4.083,0V27.93a2.042,2.042,0,1,0,4.083,0v-3.4H44.21A52.263,52.263,0,0,0,12.444,72.162h-3.4A2.042,2.042,0,0,0,7,74.2V85.092a2.042,2.042,0,0,0,2.042,2.041H19.93a2.042,2.042,0,0,0,2.042-2.041V74.2a2.042,2.042,0,0,0-2.042-2.042h-3.4a48.411,48.411,0,0,1,42.188-47.44V27.93a2.042,2.042,0,0,0,2.042,2.042h3.511L43.08,83.745a2.042,2.042,0,0,0,0,1.456l7.594,20.674L50.552,119.1a2.042,2.042,0,0,0,2.042,2.055H78.453a2.041,2.041,0,0,0,2.042-2.042v-13.17l9.268-20.619a2.042,2.042,0,0,0,0-1.592L68.137,29.971h3.511a2.042,2.042,0,0,0,2.042-2.042V24.718c23.137,3.171,40,22.184,40.83,46.084h-3.4a2.042,2.042,0,0,0-2.042,2.042V83.731a2.042,2.042,0,0,0,2.042,2.042h10.888a2.042,2.042,0,0,0,2.042-2.042V72.843a2.042,2.042,0,0,0-2.042-2.042ZM17.888,83.05H11.083V76.245h6.805Zm36.747,34.025.082-9.527H76.411v9.527Zm22.5-13.61h-23L47.163,84.52l17-43.13v36.9a2.042,2.042,0,1,0,4.084,0V41.19L85.68,84.411ZM69.606,25.888H62.8V19.083h6.8Zm50.357,55.8h-6.805v-6.8h6.805Z" transform="translate(1732.369 249.128)" fill="#ffad0e"/>
      <g id="_5375478681594722064-2" data-name="5375478681594722064" transform="translate(1185.633 271.685)">
        <path id="Path_184-2" data-name="Path 184" d="M75.271,47.524V6H5V47.524" transform="translate(4.582 -6)" fill="none" stroke="#4b4bff" stroke-linecap="round" stroke-linejoin="round" stroke-miterlimit="10" stroke-width="7"/>
        <path id="Path_185-2" data-name="Path 185" d="M91.436,34.777H2L8.388,22h76.66Z" transform="translate(-2 29.106)" fill="none" stroke="#4b4bff" stroke-linecap="round" stroke-linejoin="round" stroke-miterlimit="10" stroke-width="7"/>
        <path id="Path_186-2" data-name="Path 186" d="M17.582,11,8,20.582l9.582,9.582" transform="translate(11.165 4.971)" fill="none" stroke="#4b4bff" stroke-linecap="round" stroke-linejoin="round" stroke-miterlimit="10" stroke-width="7"/>
        <path id="Path_187-2" data-name="Path 187" d="M21,11l9.582,9.582L21,30.165" transform="translate(39.689 4.971)" fill="none" stroke="#4b4bff" stroke-linecap="round" stroke-linejoin="round" stroke-miterlimit="10" stroke-width="7"/>
        <line id="Line_1-2" data-name="Line 1" x1="12.65" y2="24.668" transform="translate(37.95 13.283)" fill="none" stroke="#4b4bff" stroke-linecap="round" stroke-linejoin="round" stroke-miterlimit="10" stroke-width="7"/>
      </g>
    </g>
  </g>
</svg>
