<svg xmlns="http://www.w3.org/2000/svg" width="2075.779" height="900.483" viewBox="0 0 2075.779 900.483">
  <g id="undraw_hello_re_3evm" transform="translate(0 0)">
    <path id="Path_437" data-name="Path 437" d="M1647.312,412.839H429.441a19.5,19.5,0,1,0,0,39h34.5V918.287a19.5,19.5,0,1,0,39,0l.3-466.449H1480.7l90.125,466.45a19.5,19.5,0,0,0,39,0l5.673-466.45h31.823a19.5,19.5,0,1,0,0-39Z" transform="translate(225.102 -41.363)" fill="#c2820c" opacity="0.38"/>
    <path id="Path_438" data-name="Path 438" d="M650.584,371.863v82.568H443.72a41.309,41.309,0,0,1-2.873-82.568q1.436-.05,2.873,0Z" transform="translate(215.061 -87.268)" fill="#f2f2f2"/>
    <path id="Path_439" data-name="Path 439" d="M658.013,454.791a3.177,3.177,0,0,1-3.176,3.176H442.384a43.507,43.507,0,1,1,0-87.014H654.838a3.176,3.176,0,1,1,0,6.351H442.384a37.156,37.156,0,0,0,0,74.312H654.838a3.177,3.177,0,0,1,3.175,3.176Z" transform="translate(212.713 -88.26)" fill="#02e06b"/>
    <path id="Path_440" data-name="Path 440" d="M636.5,381.511H414.2a.635.635,0,1,1-.012-1.27H636.5a.635.635,0,0,1,0,1.27Z" transform="translate(229.148 -77.86)" fill="#ccc"/>
    <path id="Path_441" data-name="Path 441" d="M636.5,388.7H414.2a.635.635,0,1,1-.012-1.27H636.5a.635.635,0,0,1,0,1.27Z" transform="translate(229.148 -69.808)" fill="#ccc"/>
    <path id="Path_442" data-name="Path 442" d="M636.5,395.894H414.2a.635.635,0,1,1-.012-1.27H636.5a.635.635,0,0,1,0,1.27Z" transform="translate(229.148 -61.757)" fill="#ccc"/>
    <path id="Path_443" data-name="Path 443" d="M636.5,403.086H414.2a.635.635,0,1,1-.012-1.27H636.5a.635.635,0,1,1,0,1.27Z" transform="translate(229.148 -53.705)" fill="#ccc"/>
    <path id="Path_444" data-name="Path 444" d="M632.186,330.822v82.568H425.322a41.309,41.309,0,1,1-2.873-82.568q1.436-.05,2.873,0Z" transform="translate(194.462 -133.217)" fill="#f2f2f2"/>
    <path id="Path_445" data-name="Path 445" d="M639.617,413.749a3.177,3.177,0,0,1-3.176,3.176H423.986a43.507,43.507,0,0,1,0-87.014H636.44a3.176,3.176,0,1,1,0,6.351H423.986a37.156,37.156,0,0,0,0,74.312H636.44a3.177,3.177,0,0,1,3.177,3.176Z" transform="translate(192.114 -134.211)" fill="#f09d00"/>
    <path id="Path_446" data-name="Path 446" d="M618.1,340.47H395.8a.635.635,0,1,1-.012-1.27H618.1a.635.635,0,0,1,0,1.27Z" transform="translate(208.55 -123.81)" fill="#ccc"/>
    <path id="Path_447" data-name="Path 447" d="M618.1,347.662H395.8a.635.635,0,1,1-.012-1.27H618.1a.635.635,0,0,1,0,1.27Z" transform="translate(208.55 -115.758)" fill="#ccc"/>
    <path id="Path_448" data-name="Path 448" d="M618.1,354.853H395.8a.635.635,0,1,1-.012-1.27H618.1a.635.635,0,0,1,0,1.27Z" transform="translate(208.55 -107.707)" fill="#ccc"/>
    <path id="Path_449" data-name="Path 449" d="M618.1,362.045H395.8a.635.635,0,0,1-.012-1.27H618.1a.635.635,0,0,1,0,1.27Z" transform="translate(208.55 -99.655)" fill="#ccc"/>
    <path id="Path_450" data-name="Path 450" d="M770.738,595.048V523.056a12,12,0,0,0-12-12H485.766a12,12,0,0,0-12,12v71.993Z" transform="translate(296.56 68.602)" fill="#03ff79"/>
    <rect id="Rectangle_328" data-name="Rectangle 328" width="296.969" height="92.99" transform="translate(770.328 690.648)" fill="#ffad0e"/>
    <path id="Path_451" data-name="Path 451" d="M473.768,620.029v71.992a12,12,0,0,0,12,12H758.737a12,12,0,0,0,12-12V620.029Z" transform="translate(296.561 190.606)" fill="#4b4bff"/>
    <circle id="Ellipse_61" data-name="Ellipse 61" cx="8.999" cy="8.999" r="8.999" transform="translate(908.312 615.656)" fill="#fff"/>
    <circle id="Ellipse_62" data-name="Ellipse 62" cx="8.999" cy="8.999" r="8.999" transform="translate(908.312 735.644)" fill="#fff"/>
    <circle id="Ellipse_63" data-name="Ellipse 63" cx="8.999" cy="8.999" r="8.999" transform="translate(908.796 853.089)" fill="#fff"/>
    <path id="Path_452" data-name="Path 452" d="M729.837,472.344v82.568H522.973a41.309,41.309,0,1,1-2.875-82.568q1.437-.05,2.875,0Z" transform="translate(303.79 25.231)" fill="#f2f2f2"/>
    <path id="Path_453" data-name="Path 453" d="M737.279,555.271a3.177,3.177,0,0,1-3.176,3.176H521.65a43.507,43.507,0,1,1-.052-87.014H734.1a3.176,3.176,0,1,1,0,6.352H521.65a37.156,37.156,0,0,0,0,74.312H734.1A3.177,3.177,0,0,1,737.279,555.271Z" transform="translate(301.429 24.237)" fill="#4b4bff"/>
    <path id="Path_454" data-name="Path 454" d="M715.749,481.991H493.45a.635.635,0,0,1-.012-1.27H715.749a.635.635,0,1,1,0,1.27Z" transform="translate(317.878 34.637)" fill="#ccc"/>
    <path id="Path_455" data-name="Path 455" d="M715.749,489.183H493.45a.635.635,0,0,1-.012-1.27H715.749a.635.635,0,1,1,0,1.27Z" transform="translate(317.878 42.689)" fill="#ccc"/>
    <path id="Path_456" data-name="Path 456" d="M715.749,496.374H493.45a.635.635,0,1,1-.012-1.27H715.749a.635.635,0,1,1,0,1.27Z" transform="translate(317.878 50.74)" fill="#ccc"/>
    <path id="Path_457" data-name="Path 457" d="M715.749,503.566H493.45a.635.635,0,0,1-.012-1.27H715.749a.635.635,0,1,1,0,1.27Z" transform="translate(317.878 58.792)" fill="#ccc"/>
    <path id="Path_458" data-name="Path 458" d="M548.472,317.819H454.224a5.824,5.824,0,0,0-2.579.6l-23.788,11.909a4.335,4.335,0,0,0,0,7.979l23.788,11.909a5.825,5.825,0,0,0,2.579.6h94.25a4.947,4.947,0,0,0,5.22-4.59V322.408a4.947,4.947,0,0,0-5.222-4.589Z" transform="translate(242.203 -147.758)" fill="#1c1c59"/>
    <path id="Path_459" data-name="Path 459" d="M498.506,322.407v23.817a4.947,4.947,0,0,1-5.22,4.59H474.508v-33h18.777a4.947,4.947,0,0,1,5.22,4.589Z" transform="translate(297.389 -147.758)" fill="#4b4bff"/>
    <path id="Path_460" data-name="Path 460" d="M220.955,642.274a74.906,74.906,0,0,0,72.332-12.742c25.335-21.264,33.278-56.3,39.741-88.735l19.117-95.946-40.023,27.558c-28.782,19.818-58.212,40.271-78.141,68.977s-28.627,67.892-12.616,98.953" transform="translate(4.664 -5.522)" fill="#03ff79"/>
    <path id="Path_461" data-name="Path 461" d="M221.728,694.05c-4.051-29.506-8.216-59.392-5.375-89.214,2.523-26.486,10.6-52.355,27.055-73.565a122.374,122.374,0,0,1,31.4-28.452c3.14-1.982,6.03,2.994,2.9,4.967a116.342,116.342,0,0,0-46.019,55.526c-10.019,25.483-11.628,53.262-9.9,80.333,1.044,16.371,3.257,32.634,5.487,48.877a2.98,2.98,0,0,1-2.009,3.538,2.894,2.894,0,0,1-3.538-2.009Z" transform="translate(7.312 58.865)" fill="#02e06b"/>
    <path id="Path_462" data-name="Path 462" d="M236.8,599.7a55.139,55.139,0,0,0,48.044,24.8c24.321-1.155,44.6-18.129,62.848-34.244l53.986-47.665-35.729-1.71c-25.694-1.23-52.052-2.376-76.525,5.547s-47.044,26.993-51.519,52.325" transform="translate(31.254 101.005)" fill="#4b4bff"/>
    <path id="Path_463" data-name="Path 463" d="M213.194,647.829c19.5-34.5,42.112-72.841,82.521-85.1a92.088,92.088,0,0,1,34.709-3.584c3.685.318,2.765,6-.914,5.681a85.549,85.549,0,0,0-55.391,14.655c-15.618,10.631-27.779,25.411-38.071,41.084-6.3,9.6-11.952,19.608-17.6,29.6-1.805,3.194-7.081.888-5.255-2.343Z" transform="translate(4.398 122.049)" fill="#3232cf"/>
    <path id="Path_464" data-name="Path 464" d="M202.41,646.939A41.753,41.753,0,0,1,228,611.969V592.024h33.451V612.6a41.73,41.73,0,0,1,24.192,34.342l7.866,91.436H194.544Z" transform="translate(-16.058 159.252)" fill="#c2820c"/>
    <path id="Path_465" data-name="Path 465" d="M801.082,440.519l-9.951-4.19L784.3,386.443H693.4L686,436.125l-8.9,4.451a2.114,2.114,0,0,0,.946,4.005H800.262a2.114,2.114,0,0,0,.82-4.063Z" transform="translate(522.896 -70.917)" fill="#2ee183"/>
    <path id="Path_466" data-name="Path 466" d="M1051.733,427.509H605.17a8.847,8.847,0,0,1-8.828-8.847V355.691h464.217v62.971a8.847,8.847,0,0,1-8.826,8.847Z" transform="translate(433.795 -105.346)" fill="#8affc1"/>
    <path id="Path_467" data-name="Path 467" d="M1061.243,517.688H596.15V248.246a10.677,10.677,0,0,1,10.666-10.665h443.761a10.677,10.677,0,0,1,10.666,10.665Z" transform="translate(433.58 -237.582)" fill="#3f3d56"/>
    <path id="Path_468" data-name="Path 468" d="M1023.134,487.8H613.6a8.231,8.231,0,0,1-8.223-8.222V255.03a8.232,8.232,0,0,1,8.222-8.223h409.536a8.231,8.231,0,0,1,8.222,8.223v224.55a8.231,8.231,0,0,1-8.222,8.222Z" transform="translate(443.909 -227.252)" fill="#fafafa"/>
    <path id="Path_469" data-name="Path 469" d="M755.846,401.339a24.621,24.621,0,0,1,37.445,4.817l55.395-9.849,14.2,32.2L784.458,441.32a24.754,24.754,0,0,1-28.612-39.981Z" transform="translate(603.332 -61.556)" fill="#ffb6b6"/>
    <path id="Path_470" data-name="Path 470" d="M775.776,503.645l57.75-.72,7.31-.1,117.495-1.48s31.906-30.439,59.689-61.779l-3.894-28.166a115.078,115.078,0,0,0-38.584-71.249c-39.791,26.588-62.867,79.218-62.867,79.218l-72.851,17.425-7.288,1.743-45.266,10.817Z" transform="translate(634.689 -122.744)" fill="#3232cf"/>
    <path id="Path_471" data-name="Path 471" d="M1043.291,498.962h-107.8c0,4.619-117.837,8.368-117.837,8.368a43.041,43.041,0,0,0-7.062,6.694,41.537,41.537,0,0,0-9.708,26.776v6.694a41.853,41.853,0,0,0,41.838,41.838h200.567a41.874,41.874,0,0,0,41.838-41.838V540.8a41.9,41.9,0,0,0-41.839-41.838Z" transform="translate(662.803 55.06)" fill="#c7c7ff"/>
    <rect id="Rectangle_329" data-name="Rectangle 329" width="43.512" height="251.151" transform="translate(1584.192 642.729)" fill="#c7c7ff"/>
    <path id="Path_472" data-name="Path 472" d="M799.312,680.757c0,4.7,65.935,1.818,147.27,1.818s147.269,2.883,147.269-1.818-65.935-41.983-147.269-41.983S799.312,676.056,799.312,680.757Z" transform="translate(661.039 211.593)" fill="#c7c7ff"/>
    <path id="Path_473" data-name="Path 473" d="M700.428,473.439l-32.383,0L652.64,348.531l47.793,0Z" transform="translate(730.695 390.215)" fill="#ffb6b6"/>
    <path id="Path_474" data-name="Path 474" d="M844.573,682.019l-104.416,0v-1.321A40.643,40.643,0,0,1,780.8,640.053h.005l63.774,0Z" transform="translate(594.809 213.025)" fill="#2f2e41"/>
    <path id="Path_475" data-name="Path 475" d="M655.274,473.439l-32.383,0L607.485,348.531l47.793,0Z" transform="translate(680.139 390.215)" fill="#ffb6b6"/>
    <path id="Path_476" data-name="Path 476" d="M799.418,682.019l-104.416,0v-1.321a40.643,40.643,0,0,1,40.639-40.641h.005l63.774,0Z" transform="translate(544.254 213.025)" fill="#2f2e41"/>
    <circle id="Ellipse_64" data-name="Ellipse 64" cx="56.305" cy="56.305" r="56.305" transform="translate(1569.188 31.947)" fill="#ffb6b6"/>
    <path id="Path_477" data-name="Path 477" d="M1098.664,470.66s18.892,99.9-52.989,112.62-175.643,21.662-175.643,21.662l-46.6,217.4-62.6-5.589s8.326-261.7,28.8-282.176S939.514,452.8,939.514,452.8Z" transform="translate(617.958 3.373)" fill="#1c1c59"/>
    <path id="Path_478" data-name="Path 478" d="M1010.349,441.471l-31.438,31.54s-227,36.563-235.755,88.992c-13.221,79.155-28.837,251.283-28.837,251.283l68.249-5.119L809.332,612.5l109.2-24.839,124.237-67.707Z" transform="translate(565.883 -9.307)" fill="#1c1c59"/>
    <path id="Path_479" data-name="Path 479" d="M963.814,284.788c-5.558-10.487-12.62-31.387-23.839-35.263a89.192,89.192,0,0,0-19.2-4.09l-19.068,7.334,10.378-8.071q-3.031-.181-6.058-.3L893.16,249.35l6.582-5.119c-11.994-.123-24.375,1.124-33.669,8.426-7.923,6.225-15.773,29.805-17.043,39.8a76.129,76.129,0,0,0,1.4,28.679l3.258,3.1a39.967,39.967,0,0,0,2.556-8.137,38.535,38.535,0,0,1,18.446-25.025l.177-.1c5.465-3.076,12.1-2.934,18.362-2.708l29.763,1.071c7.161.258,14.871.711,20.454,5.2a33.681,33.681,0,0,1,8.178,11.847c2.774,5.6,8.195,26.716,8.195,26.716s3.067-3.986,4.537-1.019a102.588,102.588,0,0,0,4.27-23.81A46.648,46.648,0,0,0,963.814,284.788Z" transform="translate(715.859 -230.146)" fill="#2f2e41"/>
    <path id="Path_480" data-name="Path 480" d="M1031.381,290.917a24.621,24.621,0,0,0-22.283,30.476l-45.277,33.4,13.586,32.465,63.278-48.064a24.754,24.754,0,0,0-9.3-48.276Z" transform="translate(845.222 -177.94)" fill="#ffb6b6"/>
    <path id="Path_481" data-name="Path 481" d="M1116.014,341.1,1002.508,467.167s-54.281-17.377-96.261-36.216l-18.859-57.924a115.193,115.193,0,0,1-5.513-41.681c58.2-15.486,125.885,42.135,125.885,42.135l84.965-66.553Z" transform="translate(753.301 -159.942)" fill="#3232cf"/>
    <path id="Path_482" data-name="Path 482" d="M901.5,634.323c-20.251-7-41.19-14.228-63.777-16.944l-.97-.117.268-.939c23.381-82.094,17.545-134.608,6.087-213.492A79.678,79.678,0,0,1,888.783,319.1l.139-.063,64.509-4.1.147-.009,46.916,13.8a32.182,32.182,0,0,1,23.034,31.436c-.508,25.943.57,54.907,1.711,85.57,2.56,68.793,5.208,139.928-9.815,186.083l-.079.242-.2.157A76.515,76.515,0,0,1,966.222,649.4C945.165,649.4,923.674,641.981,901.5,634.323Z" transform="translate(702.96 -150.979)" fill="#3232cf"/>
    <path id="Path_483" data-name="Path 483" d="M2183.121,665.587H113.336a3,3,0,0,1,0-6h2069.78a3,3,0,0,1,0,6Z" transform="translate(-110.337 234.896)" fill="#1c1c59"/>
  </g>
</svg>
